<?xml version="1.0" encoding="UTF-8"?>
<svg id="Layer_2" data-name="Layer 2" xmlns="http://www.w3.org/2000/svg" viewBox="0 0 514.04 519.4">
  <g id="Layer_15" data-name="Layer 15">
    <path d="M208.8,441.45c-38.76-62.66-89.45-119.06-150.67-167.65C21.19,244.48,0,200.64,0,153.51,0,68.86,68.86,0,153.51,0c39.85,0,76.2,15.26,103.51,40.24C284.34,15.26,320.68,0,360.53,0c84.65,0,153.51,68.86,153.51,153.51,0,47.13-21.19,90.97-58.13,120.29-61.22,48.58-111.91,104.99-150.67,167.65l-48.22,77.95-48.22-77.95Z" fill="#edeef1"/>
    <path d="M360.53,50h0c-57.17,0-103.51,46.34-103.51,103.51,0-57.17-46.34-103.51-103.51-103.51h0c-57.17,0-103.51,46.34-103.51,103.51h0c0,32.87,15.32,62.16,39.21,81.12,63.85,50.67,119.23,111.19,162.11,180.51l5.7,9.21,5.7-9.21c42.88-69.32,98.26-129.83,162.11-180.51,23.89-18.96,39.21-48.25,39.21-81.12h0c0-57.17-46.34-103.51-103.51-103.51Z" fill="#d13d28"/>
  </g>
</svg>