<?xml version="1.0" encoding="UTF-8"?>
<svg id="Layer_2" data-name="Layer 2" xmlns="http://www.w3.org/2000/svg" xmlns:xlink="http://www.w3.org/1999/xlink" viewBox="0 0 1070.34 1107.44">
  <defs>
    <clipPath id="clippath">
      <rect width="1070.34" height="1107.44" fill="none"/>
    </clipPath>
    <clipPath id="clippath-1">
      <rect x="779.57" y="-361.72" width="680.76" height="680.15" fill="none"/>
    </clipPath>
    <clipPath id="clippath-2">
      <rect x="779.57" y="318.43" width="680.76" height="680.15" fill="none"/>
    </clipPath>
    <clipPath id="clippath-3">
      <rect x="779.57" y="998.58" width="680.76" height="680.15" fill="none"/>
    </clipPath>
    <clipPath id="clippath-4">
      <rect x="98.81" y="-361.72" width="680.76" height="680.15" fill="none"/>
    </clipPath>
    <clipPath id="clippath-5">
      <rect x="98.81" y="318.43" width="680.76" height="680.15" fill="none"/>
    </clipPath>
    <clipPath id="clippath-6">
      <rect x="98.81" y="998.58" width="680.76" height="680.15" fill="none"/>
    </clipPath>
    <clipPath id="clippath-7">
      <rect x="-581.96" y="-361.72" width="680.76" height="680.15" fill="none"/>
    </clipPath>
    <clipPath id="clippath-8">
      <rect x="-581.96" y="318.43" width="680.76" height="680.15" fill="none"/>
    </clipPath>
    <clipPath id="clippath-9">
      <rect x="-581.96" y="998.58" width="680.76" height="680.15" fill="none"/>
    </clipPath>
  </defs>
  <g id="Layer_3" data-name="Layer 3">
    <g clip-path="url(#clippath)">
      <g clip-path="url(#clippath-1)">
        <g>
          <rect x="903.64" y="315.96" width="41.36" height="186.05" fill="#231f20"/>
          <rect x="820.92" y="313.99" width="41.36" height="188.02" fill="#231f20"/>
          <polygon points="1119.76 331.45 1119.95 308.65 1048.6 298.24 966.08 298.24 945 301.4 924.32 304.56 924.32 344.1 998.5 344.1 1119.76 331.45" fill="#231f20"/>
        </g>
        <polygon points="439.68 659.71 439.19 312.54 779.94 312.54 779.94 659.38 439.68 659.71" fill="#231f20"/>
        <g>
          <polygon points="1119.83 -20.62 1120.32 318.43 779.57 318.43 779.57 -20.3 1119.83 -20.62" fill="#231f20"/>
          <path d="M1032.41,156.22c48.28,0,87.42-37.78,87.42-84.39V-20.61s-81.49,0-81.49,0h-11.85s-5.68,0-5.68,0h-75.81s0,19.56,0,19.56v13.29s0,17.62,0,17.62v22.02s0,1.26,0,1.26h0v9.03h0s0,1.14,0,1.14c0,16.97,1.23,22.56,1.23,22.56,6.93,39.92,42.87,70.35,86.19,70.35Z" fill="#4dbd90"/>
          <rect x="903.64" y="-20.3" width="41.36" height="176.52" fill="#484699"/>
          <rect x="862.28" y="-20.3" width="41.36" height="176.52" fill="#231f20"/>
          <rect x="820.92" y="-20.3" width="41.36" height="176.52" fill="#d13e28"/>
          <rect x="779.57" y="-20.3" width="41.36" height="176.52" fill="#231f20"/>
          <polygon points="779.58 237.33 779.58 237.51 779.57 318.43 949.94 246.06 949.94 237.33 779.58 237.33" fill="#484699"/>
          <polygon points="1120.29 156.22 1120.29 156.59 1120.32 318.43 779.57 173.68 779.57 156.22 1120.29 156.22" fill="#d13e28"/>
          <path d="M1032.41,115.93c25.23,0,45.69-19.86,45.69-44.36,0-24.5-20.46-44.36-45.69-44.36-25.23,0-45.69,19.86-45.69,44.36,0,24.5,20.46,44.36,45.69,44.36ZM1032.17,54.69c9.08,0,16.43,7.12,16.43,15.89,0,8.17-6.37,14.89-14.57,15.78,1.01-1.82,1.58-3.9,1.58-6.11,0-7.18-6.02-13-13.44-13-2.29,0-4.44.56-6.32,1.53.93-7.93,7.87-14.09,16.32-14.09Z" fill="#231f20"/>
          <polygon points="820.74 -3.63 820.92 -29.17 867.09 -32.15 862.1 -20.49 862.1 1.05 820.74 -3.63" fill="#d13e28"/>
          <polygon points="1120.25 -20.26 1032.41 -40.66 944.81 -40.66 944.81 29.67 1002.84 4.88 1060.07 4.88 1120.25 -20.26" fill="#4dbd90"/>
        </g>
        <g>
          <polygon points="591.68 85.82 438.88 -20.76 779.63 -20.76 761.87 19.5 694.45 47.05 624.29 54.37 620.75 67.55 614.21 81.13 591.68 85.82" fill="#484699"/>
          <polygon points="777.78 261.54 772.35 303.85 776.37 317.08 779.57 318.43 802.13 289.99 796.22 264.62 787.24 253.74 782.27 240.27 779.57 237.91 773.77 253.98 777.78 261.54" fill="#484699"/>
          <rect x="779.53" y="58.17" width="5.76" height="70.73" fill="#231f20"/>
        </g>
      </g>
      <g clip-path="url(#clippath-2)">
        <g>
          <rect x="903.64" y="996.11" width="41.36" height="186.05" fill="#231f20"/>
          <rect x="820.92" y="994.14" width="41.36" height="188.02" fill="#231f20"/>
          <polygon points="1119.76 1011.6 1119.95 988.8 1048.6 978.39 966.08 978.39 945 981.55 924.32 984.71 924.32 1024.25 998.5 1024.25 1119.76 1011.6" fill="#231f20"/>
        </g>
        <polygon points="439.68 1339.87 439.19 992.69 779.94 992.69 779.94 1339.53 439.68 1339.87" fill="#231f20"/>
        <g>
          <polygon points="1119.83 321.03 1120.32 660.09 779.57 660.09 779.57 321.35 1119.83 321.03"/>
          <polygon points="939.27 536.79 912.83 374.34 1120.62 368.87 1120.62 392.5 1120.62 442.28 1122.91 465.28 1120.29 497.87 1119.58 526.69 939.27 536.79" fill="#d13e28"/>
          <path d="M1032.41,497.87c48.28,0,87.42-37.78,87.42-84.39v-92.45s-81.49,0-81.49,0h-11.85s-5.68,0-5.68,0h-75.81s0,19.56,0,19.56v13.29s0,17.62,0,17.62v22.02s0,1.26,0,1.26h0v9.03h0s0,1.14,0,1.14c0,16.97,1.23,22.56,1.23,22.56,6.93,39.92,42.87,70.35,86.19,70.35Z" fill="#231f20"/>
          <rect x="903.64" y="315.96" width="41.36" height="186.05" fill="#231f20"/>
          <polygon points="967.52 552.73 1120.32 660.09 779.57 660.09 797.33 619.53 864.76 591.78 934.91 584.41 938.45 571.13 945 557.46 967.52 552.73" fill="#4dbd90"/>
          <polygon points="786.48 477.05 939.27 584.41 761.38 591.57 755.27 551.01 760.62 523.17 763.67 514.69 773.6 507.82 763.95 481.77 786.48 477.05" fill="#d13e28"/>
          <rect x="862.28" y="318.43" width="41.36" height="179.44"/>
          <polygon points="820.92 497.87 779.57 497.87 779.57 318.43 779.57 318.43 820.92 318.43 820.92 318.43 820.92 318.43 820.92 342.03 820.92 497.87" fill="#828282"/>
          <rect x="820.92" y="313.99" width="41.36" height="188.02" fill="#231f20"/>
          <rect x="779.57" y="318.43" width="41.36" height="179.44"/>
          <polygon points="779.58 578.98 779.58 579.17 779.57 660.09 949.94 587.71 949.94 578.98 779.58 578.98" fill="#231f20"/>
          <polygon points="1120.29 497.87 1120.29 498.24 1120.32 660.09 779.57 515.34 779.57 497.87 1120.29 497.87" fill="#231f20"/>
          <path d="M1032.41,457.58c25.23,0,45.69-19.86,45.69-44.36s-20.46-44.36-45.69-44.36-45.69,19.86-45.69,44.36c0,24.5,20.46,44.36,45.69,44.36ZM1032.17,396.34c9.08,0,16.43,7.12,16.43,15.89,0,8.17-6.37,14.89-14.57,15.78,1.01-1.82,1.58-3.9,1.58-6.11,0-7.18-6.02-13-13.44-13-2.29,0-4.44.56-6.32,1.53.93-7.93,7.87-14.09,16.32-14.09Z" fill="#d13e28"/>
          <polygon points="1119.83 659.53 1120.32 998.58 779.57 998.58 779.57 659.85 1119.83 659.53" fill="#231f20"/>
          <path d="M1032.41,836.37c48.28,0,87.42-37.78,87.42-84.39v-92.45s-81.49,0-81.49,0h-11.85s-5.68,0-5.68,0h-75.81s0,19.56,0,19.56v13.29s0,17.62,0,17.62v22.02s0,1.26,0,1.26h0v9.03h0s0,1.14,0,1.14c0,16.97,1.23,22.56,1.23,22.56,6.93,39.92,42.87,70.35,86.19,70.35Z" fill="#4dbd90"/>
          <rect x="903.64" y="659.85" width="41.36" height="176.52" fill="#484699"/>
          <rect x="862.28" y="659.85" width="41.36" height="176.52" fill="#231f20"/>
          <rect x="820.92" y="659.85" width="41.36" height="176.52" fill="#d13e28"/>
          <rect x="779.57" y="659.85" width="41.36" height="176.52" fill="#231f20"/>
          <polygon points="779.58 917.48 779.58 917.66 779.57 998.58 949.94 926.21 949.94 917.48 779.58 917.48" fill="#484699"/>
          <polygon points="1120.29 836.37 1120.29 836.74 1120.32 998.58 779.57 853.83 779.57 836.37 1120.29 836.37" fill="#d13e28"/>
          <path d="M1032.41,796.08c25.23,0,45.69-19.86,45.69-44.36,0-24.5-20.46-44.36-45.69-44.36-25.23,0-45.69,19.86-45.69,44.36,0,24.5,20.46,44.36,45.69,44.36ZM1032.17,734.84c9.08,0,16.43,7.12,16.43,15.89,0,8.17-6.37,14.89-14.57,15.78,1.01-1.82,1.58-3.9,1.58-6.11,0-7.18-6.02-13-13.44-13-2.29,0-4.44.56-6.32,1.53.93-7.93,7.87-14.09,16.32-14.09Z" fill="#231f20"/>
          <polygon points="820.74 676.52 820.92 650.98 867.09 648 862.1 659.67 862.1 681.2 820.74 676.52" fill="#d13e28"/>
          <polygon points="1120.25 659.89 1032.41 639.49 944.81 639.49 944.81 709.82 1002.84 685.03 1060.07 685.03 1120.25 659.89" fill="#4dbd90"/>
          <polygon points="1119.76 331.45 1119.95 308.65 1048.6 298.24 966.08 298.24 945 301.4 924.32 304.56 924.32 344.1 998.5 344.1 1119.76 331.45" fill="#231f20"/>
          <polygon points="903.64 660.3 903.64 659.15 907.46 657.97 907.67 661.23 904.85 661.23 903.64 660.3" fill="#484699"/>
          <polygon points="903.64 497.87 862.28 497.87 862.28 318.43 862.28 318.43 903.64 318.43 903.64 318.43 903.64 318.43 903.64 342.03 903.64 497.87" fill="#4dbd90"/>
          <polygon points="820.92 497.87 779.57 497.87 779.57 318.43 779.57 318.43 820.92 318.43 820.92 318.43 820.92 318.43 820.92 342.03 820.92 497.87" fill="#484699"/>
          <polygon points="962.29 660.09 779.57 660.09 817.63 648 962.29 648 962.29 660.09" fill="#4dbd90"/>
        </g>
        <g>
          <polygon points="591.68 765.97 438.88 659.39 779.63 659.39 761.87 699.65 694.45 727.2 624.29 734.53 620.75 747.7 614.21 761.28 591.68 765.97" fill="#484699"/>
          <polygon points="439.68 659.71 439.19 312.54 779.94 312.54 779.94 659.38 439.68 659.71" fill="#231f20"/>
          <rect x="738.58" y="482.87" width="41.36" height="176.52" fill="#231f20"/>
          <polygon points="779.92 401.77 779.92 401.58 779.94 320.66 609.56 393.03 609.56 401.77 779.92 401.77" fill="#484699"/>
          <polygon points="439.1 483.52 439.1 483.15 439.07 320.66 779.94 465.99 779.94 483.52 439.1 483.52" fill="#4dbd90"/>
          <polygon points="776.95 401.77 790.66 401.77 789.65 358.06 789.77 330.41 785.08 319.6 779.94 319.6 779.94 320.66 772.93 327.85 772.15 368.09 776.95 401.77" fill="#484699"/>
          <polygon points="777.78 941.69 772.35 984 776.37 997.23 779.57 998.58 802.13 970.14 796.22 944.77 787.24 933.89 782.27 920.42 779.57 918.06 773.77 934.13 777.78 941.69" fill="#484699"/>
          <rect x="779.53" y="738.32" width="5.76" height="70.73" fill="#231f20"/>
        </g>
      </g>
      <g clip-path="url(#clippath-3)">
        <g>
          <polygon points="1119.83 1001.18 1120.32 1340.24 779.57 1340.24 779.57 1001.51 1119.83 1001.18"/>
          <polygon points="939.27 1216.95 912.83 1054.49 1120.62 1049.02 1120.62 1072.65 1120.62 1122.43 1122.91 1145.43 1120.29 1178.03 1119.58 1206.85 939.27 1216.95" fill="#d13e28"/>
          <path d="M1032.41,1178.03c48.28,0,87.42-37.78,87.42-84.39v-92.45s-81.49,0-81.49,0h-11.85s-5.68,0-5.68,0h-75.81s0,19.56,0,19.56v13.29s0,17.62,0,17.62v22.02s0,1.26,0,1.26h0v9.03h0s0,1.14,0,1.14c0,16.97,1.23,22.56,1.23,22.56,6.93,39.92,42.87,70.35,86.19,70.35Z" fill="#231f20"/>
          <rect x="903.64" y="996.11" width="41.36" height="186.05" fill="#231f20"/>
          <rect x="862.28" y="998.58" width="41.36" height="179.44"/>
          <polygon points="820.92 1178.03 779.57 1178.03 779.57 998.58 779.57 998.58 820.92 998.58 820.92 998.58 820.92 998.58 820.92 1022.18 820.92 1178.03" fill="#828282"/>
          <rect x="820.92" y="994.14" width="41.36" height="188.02" fill="#231f20"/>
          <rect x="779.57" y="998.58" width="41.36" height="179.44"/>
          <path d="M1032.41,1137.73c25.23,0,45.69-19.86,45.69-44.36s-20.46-44.36-45.69-44.36-45.69,19.86-45.69,44.36c0,24.5,20.46,44.36,45.69,44.36ZM1032.17,1076.49c9.08,0,16.43,7.12,16.43,15.89,0,8.17-6.37,14.89-14.57,15.78,1.01-1.82,1.58-3.9,1.58-6.11,0-7.18-6.02-13-13.44-13-2.29,0-4.44.56-6.32,1.53.93-7.93,7.87-14.09,16.32-14.09Z" fill="#d13e28"/>
          <polygon points="1119.76 1011.6 1119.95 988.8 1048.6 978.39 966.08 978.39 945 981.55 924.32 984.71 924.32 1024.25 998.5 1024.25 1119.76 1011.6" fill="#231f20"/>
          <polygon points="903.64 1178.03 862.28 1178.03 862.28 998.58 862.28 998.58 903.64 998.58 903.64 998.58 903.64 998.58 903.64 1022.18 903.64 1178.03" fill="#4dbd90"/>
          <polygon points="820.92 1178.03 779.57 1178.03 779.57 998.58 779.57 998.58 820.92 998.58 820.92 998.58 820.92 998.58 820.92 1022.18 820.92 1178.03" fill="#484699"/>
        </g>
        <g>
          <polygon points="439.68 1339.87 439.19 992.69 779.94 992.69 779.94 1339.53 439.68 1339.87" fill="#231f20"/>
          <polygon points="779.92 1081.92 779.92 1081.73 779.94 1000.81 609.56 1073.19 609.56 1081.92 779.92 1081.92" fill="#484699"/>
          <polygon points="439.1 1163.68 439.1 1163.3 439.07 1000.81 779.94 1146.14 779.94 1163.68 439.1 1163.68" fill="#4dbd90"/>
          <polygon points="776.95 1081.92 790.66 1081.92 789.65 1038.21 789.77 1010.56 785.08 999.75 779.94 999.75 779.94 1000.81 772.93 1008 772.15 1048.24 776.95 1081.92" fill="#484699"/>
        </g>
      </g>
      <g clip-path="url(#clippath-4)">
        <g>
          <rect x="222.88" y="315.96" width="41.36" height="186.05" fill="#231f20"/>
          <rect x="140.16" y="313.99" width="41.36" height="188.02" fill="#231f20"/>
          <polygon points="439.68 659.71 439.19 312.54 779.94 312.54 779.94 659.38 439.68 659.71" fill="#231f20"/>
          <polygon points="439 331.45 439.19 308.65 367.84 298.24 285.32 298.24 264.23 301.4 243.55 304.56 243.55 344.1 317.74 344.1 439 331.45" fill="#231f20"/>
          <polygon points="439.36 320.78 439.07 320.66 438.66 319.39 438.82 318.83 439.07 318.38 439.24 318.38 439.36 318.43 439.36 319.12 439.36 320.78" fill="#231f20"/>
        </g>
        <polygon points="-241.09 659.71 -241.58 312.54 99.18 312.54 99.18 659.38 -241.09 659.71" fill="#231f20"/>
        <g>
          <polygon points="439.3 317.69 438.81 -21.37 779.57 -21.37 779.57 317.36 439.3 317.69"/>
          <polygon points="619.93 101.64 646.37 262.93 438.58 268.36 438.58 244.9 438.58 195.47 436.29 172.64 438.91 140.28 439.63 111.67 619.93 101.64" fill="#d13e28"/>
          <polygon points="772.73 160.96 619.93 54.37 779.55 59.74 779.57 133.1 778.91 156.82 772.73 160.96" fill="#d13e28"/>
          <path d="M526.72,140.85c-48.28,0-87.42,37.78-87.42,84.39v92.45s81.49,0,81.49,0h11.85s5.68,0,5.68,0h75.81s0-19.56,0-19.56v-13.29s0-17.62,0-17.62v-22.02s0-1.26,0-1.26h0v-9.03h0s0-1.14,0-1.14c0-16.97-1.23-22.56-1.23-22.56-6.93-39.92-42.87-70.35-86.19-70.35Z" fill="#231f20"/>
          <rect x="614.14" y="140.85" width="41.36" height="176.84" fill="#231f20"/>
          <rect x="655.5" y="140.85" width="41.36" height="177.59"/>
          <rect x="696.85" y="140.85" width="41.36" height="183.6" fill="#231f20"/>
          <polygon points="591.68 85.82 438.88 -20.76 779.63 -20.76 761.87 19.5 694.45 47.05 624.29 54.37 620.75 67.55 614.21 81.13 591.68 85.82" fill="#484699"/>
          <rect x="738.21" y="140.85" width="41.36" height="177.59" fill="#484699"/>
          <polygon points="779.55 59.74 779.55 59.55 779.57 -21.37 609.19 51.01 609.19 59.74 779.55 59.74" fill="#231f20"/>
          <polygon points="438.84 140.85 438.84 140.47 438.81 -21.37 779.57 123.38 779.57 140.85 438.84 140.85" fill="#231f20"/>
          <path d="M526.72,181.14c-25.23,0-45.69,19.86-45.69,44.36,0,24.5,20.46,44.36,45.69,44.36,25.23,0,45.69-19.86,45.69-44.36,0-24.5-20.46-44.36-45.69-44.36ZM526.97,242.38c-9.08,0-16.43-7.12-16.43-15.89,0-8.17,6.37-14.89,14.57-15.78-1.01,1.82-1.58,3.9-1.58,6.11,0,7.18,6.02,13,13.44,13,2.29,0,4.44-.56,6.32-1.53-.93,7.93-7.87,14.09-16.32,14.09Z" fill="#d13e28"/>
          <polygon points="439.07 -20.62 439.56 318.43 98.81 318.43 98.81 -20.3 439.07 -20.62" fill="#231f20"/>
          <path d="M351.65,156.22c48.28,0,87.42-37.78,87.42-84.39V-20.61s-81.49,0-81.49,0h-11.85s-5.68,0-5.68,0h-75.81s0,19.56,0,19.56v13.29s0,17.62,0,17.62v22.02s0,1.26,0,1.26h0v9.03h0s0,1.14,0,1.14c0,16.97,1.23,22.56,1.23,22.56,6.93,39.92,42.87,70.35,86.19,70.35Z" fill="#4dbd90"/>
          <rect x="222.88" y="-20.3" width="41.36" height="176.52" fill="#484699"/>
          <rect x="181.52" y="-20.3" width="41.36" height="176.52" fill="#231f20"/>
          <rect x="140.16" y="-20.3" width="41.36" height="176.52" fill="#d13e28"/>
          <rect x="98.81" y="-20.3" width="41.36" height="176.52" fill="#231f20"/>
          <polygon points="98.82 237.33 98.82 237.51 98.81 318.43 269.18 246.06 269.18 237.33 98.82 237.33" fill="#484699"/>
          <polygon points="439.53 156.22 439.53 156.59 439.56 318.43 98.81 173.68 98.81 156.22 439.53 156.22" fill="#d13e28"/>
          <path d="M351.65,115.93c25.23,0,45.69-19.86,45.69-44.36,0-24.5-20.46-44.36-45.69-44.36-25.23,0-45.69,19.86-45.69,44.36,0,24.5,20.46,44.36,45.69,44.36ZM351.4,54.69c9.08,0,16.43,7.12,16.43,15.89,0,8.17-6.37,14.89-14.57,15.78,1.01-1.82,1.58-3.9,1.58-6.11,0-7.18-6.02-13-13.44-13-2.29,0-4.44.56-6.32,1.53.93-7.93,7.87-14.09,16.32-14.09Z" fill="#231f20"/>
          <polygon points="139.98 -3.63 140.16 -29.17 186.33 -32.15 181.33 -20.49 181.33 1.05 139.98 -3.63" fill="#d13e28"/>
          <polygon points="439.49 -20.26 351.65 -40.66 264.05 -40.66 264.05 29.67 322.07 4.88 379.3 4.88 439.49 -20.26" fill="#4dbd90"/>
          <polygon points="471.25 -15.55 439.86 -20.26 440.05 -36.84 500.3 -36.84 614.51 -20.6 646.37 -20.76 655.87 -20.64 656.06 -5.49 697.6 -5.49 697.41 -20.57 697.41 -20.57 738.77 -20.57 738.77 -20.57 732.6 -5.49 666.79 19.37 583.8 19.37 555.19 1.05 471.25 -15.55" fill="#484699"/>
          <polygon points="614.33 158.94 614.33 141.03 578.26 115.74 635 107.26 655.68 121.62 655.68 141.03 646.75 158.94 614.33 158.94" fill="#231f20"/>
          <polygon points="439.56 318.43 503.88 291.93 603.44 291.93 649.72 298.91 655.5 305.18 655.5 317.69 655.68 356.95 587.27 356.95 523.35 333.08 471.55 331.97 450.61 322.79 439.56 318.43" fill="#231f20"/>
          <polygon points="655.56 140.28 696.92 140.28 696.92 318.43 696.92 318.43 655.56 318.43 655.56 318.43 655.56 318.43 655.56 295.01 655.56 140.28" fill="#4dbd90"/>
          <polygon points="777.78 261.54 772.35 303.85 776.37 317.08 779.57 318.43 802.13 289.99 796.22 264.62 787.24 253.74 782.27 240.27 779.57 237.91 773.77 253.98 777.78 261.54" fill="#484699"/>
          <polygon points="779.57 318.43 736.09 318.43 736.09 327.06 764.89 327.06 779.57 320.82 779.57 318.43" fill="#231f20"/>
          <rect x="779.53" y="58.17" width="5.76" height="70.73" fill="#231f20"/>
        </g>
        <g>
          <polygon points="-89.08 85.82 -241.88 -20.76 98.87 -20.76 81.11 19.5 13.68 47.05 -56.47 54.37 -60.01 67.55 -66.56 81.13 -89.08 85.82" fill="#484699"/>
          <polygon points="97.02 261.54 91.59 303.85 95.6 317.08 98.81 318.43 121.36 289.99 115.46 264.62 106.48 253.74 101.51 240.27 98.81 237.91 93 253.98 97.02 261.54" fill="#484699"/>
          <rect x="98.77" y="58.17" width="5.76" height="70.73" fill="#231f20"/>
        </g>
      </g>
      <g clip-path="url(#clippath-5)">
        <g>
          <rect x="222.88" y="996.11" width="41.36" height="186.05" fill="#231f20"/>
          <rect x="140.16" y="994.14" width="41.36" height="188.02" fill="#231f20"/>
          <polygon points="439.68 1339.87 439.19 992.69 779.94 992.69 779.94 1339.53 439.68 1339.87" fill="#231f20"/>
          <polygon points="439 1011.6 439.19 988.8 367.84 978.39 285.32 978.39 264.23 981.55 243.55 984.71 243.55 1024.25 317.74 1024.25 439 1011.6" fill="#231f20"/>
          <polygon points="439.36 1000.93 439.07 1000.81 438.66 999.54 438.82 998.98 439.07 998.53 439.24 998.53 439.36 998.58 439.36 999.27 439.36 1000.93" fill="#231f20"/>
        </g>
        <polygon points="-241.09 1339.87 -241.58 992.69 99.18 992.69 99.18 1339.53 -241.09 1339.87" fill="#231f20"/>
        <polygon points="786.48 477.05 939.27 584.41 761.38 591.57 755.27 551.01 760.62 523.17 763.67 514.69 773.6 507.82 763.95 481.77 786.48 477.05" fill="#d13e28"/>
        <g>
          <polygon points="439.07 321.03 439.56 660.09 98.81 660.09 98.81 321.35 439.07 321.03"/>
          <polygon points="258.51 536.79 232.07 374.34 439.86 368.87 439.86 392.5 439.86 442.28 442.15 465.28 439.53 497.87 438.81 526.69 258.51 536.79" fill="#d13e28"/>
          <path d="M351.65,497.87c48.28,0,87.42-37.78,87.42-84.39v-92.45s-81.49,0-81.49,0h-11.85s-5.68,0-5.68,0h-75.81s0,19.56,0,19.56v13.29s0,17.62,0,17.62v22.02s0,1.26,0,1.26h0v9.03h0s0,1.14,0,1.14c0,16.97,1.23,22.56,1.23,22.56,6.93,39.92,42.87,70.35,86.19,70.35Z" fill="#231f20"/>
          <rect x="222.88" y="315.96" width="41.36" height="186.05" fill="#231f20"/>
          <polygon points="286.76 552.73 439.56 660.09 98.81 660.09 116.57 619.53 183.99 591.78 254.15 584.41 257.69 571.13 264.23 557.46 286.76 552.73" fill="#4dbd90"/>
          <polygon points="105.71 477.05 258.51 584.41 80.62 591.57 74.51 551.01 79.86 523.17 82.91 514.69 92.83 507.82 83.19 481.77 105.71 477.05" fill="#d13e28"/>
          <rect x="181.52" y="318.43" width="41.36" height="179.44"/>
          <polygon points="140.16 497.87 98.81 497.87 98.81 318.43 98.81 318.43 140.16 318.43 140.16 318.43 140.16 318.43 140.16 342.03 140.16 497.87" fill="#828282"/>
          <rect x="140.16" y="313.99" width="41.36" height="188.02" fill="#231f20"/>
          <rect x="98.81" y="318.43" width="41.36" height="179.44"/>
          <polygon points="98.82 578.98 98.82 579.17 98.81 660.09 269.18 587.71 269.18 578.98 98.82 578.98" fill="#231f20"/>
          <polygon points="439.53 497.87 439.53 498.24 439.56 660.09 98.81 515.34 98.81 497.87 439.53 497.87" fill="#231f20"/>
          <path d="M351.65,457.58c25.23,0,45.69-19.86,45.69-44.36s-20.46-44.36-45.69-44.36-45.69,19.86-45.69,44.36c0,24.5,20.46,44.36,45.69,44.36ZM351.4,396.34c9.08,0,16.43,7.12,16.43,15.89,0,8.17-6.37,14.89-14.57,15.78,1.01-1.82,1.58-3.9,1.58-6.11,0-7.18-6.02-13-13.44-13-2.29,0-4.44.56-6.32,1.53.93-7.93,7.87-14.09,16.32-14.09Z" fill="#d13e28"/>
          <polygon points="439.3 997.84 438.81 658.78 779.57 658.78 779.57 997.52 439.3 997.84"/>
          <polygon points="619.93 781.79 646.37 943.08 438.58 948.51 438.58 925.05 438.58 875.63 436.29 852.8 438.91 820.43 439.63 791.82 619.93 781.79" fill="#d13e28"/>
          <polygon points="772.73 841.11 619.93 734.53 779.55 739.89 779.57 813.25 778.91 836.97 772.73 841.11" fill="#d13e28"/>
          <path d="M526.72,821c-48.28,0-87.42,37.78-87.42,84.39v92.45s81.49,0,81.49,0h11.85s5.68,0,5.68,0h75.81s0-19.56,0-19.56v-13.29s0-17.62,0-17.62v-22.02s0-1.26,0-1.26h0v-9.03h0s0-1.14,0-1.14c0-16.97-1.23-22.56-1.23-22.56-6.93-39.92-42.87-70.35-86.19-70.35Z" fill="#231f20"/>
          <rect x="614.14" y="821" width="41.36" height="176.84" fill="#231f20"/>
          <rect x="655.5" y="821" width="41.36" height="177.59"/>
          <rect x="696.85" y="821" width="41.36" height="183.6" fill="#231f20"/>
          <polygon points="591.68 765.97 438.88 659.39 779.63 659.39 761.87 699.65 694.45 727.2 624.29 734.53 620.75 747.7 614.21 761.28 591.68 765.97" fill="#484699"/>
          <rect x="738.21" y="821" width="41.36" height="177.59" fill="#484699"/>
          <polygon points="779.55 739.89 779.55 739.7 779.57 658.78 609.19 731.16 609.19 739.89 779.55 739.89" fill="#231f20"/>
          <polygon points="438.84 821 438.84 820.63 438.81 658.78 779.57 803.53 779.57 821 438.84 821" fill="#231f20"/>
          <path d="M526.72,861.29c-25.23,0-45.69,19.86-45.69,44.36,0,24.5,20.46,44.36,45.69,44.36,25.23,0,45.69-19.86,45.69-44.36,0-24.5-20.46-44.36-45.69-44.36ZM526.97,922.53c-9.08,0-16.43-7.12-16.43-15.89,0-8.17,6.37-14.89,14.57-15.78-1.01,1.82-1.58,3.9-1.58,6.11,0,7.18,6.02,13,13.44,13,2.29,0,4.44-.56,6.32-1.53-.93,7.93-7.87,14.09-16.32,14.09Z" fill="#d13e28"/>
          <polygon points="439.07 659.53 439.56 998.58 98.81 998.58 98.81 659.85 439.07 659.53" fill="#231f20"/>
          <path d="M351.65,836.37c48.28,0,87.42-37.78,87.42-84.39v-92.45s-81.49,0-81.49,0h-11.85s-5.68,0-5.68,0h-75.81s0,19.56,0,19.56v13.29s0,17.62,0,17.62v22.02s0,1.26,0,1.26h0v9.03h0s0,1.14,0,1.14c0,16.97,1.23,22.56,1.23,22.56,6.93,39.92,42.87,70.35,86.19,70.35Z" fill="#4dbd90"/>
          <rect x="222.88" y="659.85" width="41.36" height="176.52" fill="#484699"/>
          <rect x="181.52" y="659.85" width="41.36" height="176.52" fill="#231f20"/>
          <rect x="140.16" y="659.85" width="41.36" height="176.52" fill="#d13e28"/>
          <rect x="98.81" y="659.85" width="41.36" height="176.52" fill="#231f20"/>
          <polygon points="98.82 917.48 98.82 917.66 98.81 998.58 269.18 926.21 269.18 917.48 98.82 917.48" fill="#484699"/>
          <polygon points="439.53 836.37 439.53 836.74 439.56 998.58 98.81 853.83 98.81 836.37 439.53 836.37" fill="#d13e28"/>
          <path d="M351.65,796.08c25.23,0,45.69-19.86,45.69-44.36,0-24.5-20.46-44.36-45.69-44.36-25.23,0-45.69,19.86-45.69,44.36,0,24.5,20.46,44.36,45.69,44.36ZM351.4,734.84c9.08,0,16.43,7.12,16.43,15.89,0,8.17-6.37,14.89-14.57,15.78,1.01-1.82,1.58-3.9,1.58-6.11,0-7.18-6.02-13-13.44-13-2.29,0-4.44.56-6.32,1.53.93-7.93,7.87-14.09,16.32-14.09Z" fill="#231f20"/>
          <polygon points="439.68 659.71 439.19 312.54 779.94 312.54 779.94 659.38 439.68 659.71" fill="#231f20"/>
          <path d="M527.09,482.87c-48.28,0-87.42,37.78-87.42,84.39v92.45s81.49,0,81.49,0h11.85s5.68,0,5.68,0h75.81s0-19.56,0-19.56v-13.29s0-17.62,0-17.62v-22.02s0-1.26,0-1.26h0v-9.03h0s0-1.14,0-1.14c0-16.97-1.23-22.56-1.23-22.56-6.93-39.92-42.87-70.35-86.19-70.35Z" fill="#484699"/>
          <polygon points="614.51 659.55 655.87 659.51 655.87 482.87 614.51 482.87 614.51 659.55" fill="#4dbd90"/>
          <rect x="655.87" y="482.87" width="41.36" height="176.52" fill="#231f20"/>
          <polygon points="697.23 659.47 738.58 659.43 738.58 482.87 697.23 482.87 697.23 659.47" fill="#d13e28"/>
          <rect x="738.58" y="482.87" width="41.36" height="176.52" fill="#231f20"/>
          <polygon points="779.92 401.77 779.92 401.58 779.94 320.66 609.56 393.03 609.56 401.77 779.92 401.77" fill="#484699"/>
          <polygon points="439.1 483.52 439.1 483.15 439.07 320.66 779.94 465.99 779.94 483.52 439.1 483.52" fill="#4dbd90"/>
          <path d="M527.09,523.17c-25.23,0-45.69,19.86-45.69,44.36s20.46,44.36,45.69,44.36,45.69-19.86,45.69-44.36c0-24.5-20.46-44.36-45.69-44.36ZM527.34,584.41c-9.08,0-16.43-7.12-16.43-15.89,0-8.17,6.37-14.89,14.57-15.78-1.01,1.82-1.58,3.9-1.58,6.11,0,7.18,6.02,13,13.44,13,2.29,0,4.44-.56,6.32-1.53-.93,7.93-7.87,14.09-16.32,14.09Z" fill="#231f20"/>
          <polygon points="139.98 676.52 140.16 650.98 186.33 648 181.33 659.67 181.33 681.2 139.98 676.52" fill="#d13e28"/>
          <polygon points="439.49 659.89 351.65 639.49 264.05 639.49 264.05 709.82 322.07 685.03 379.3 685.03 439.49 659.89" fill="#4dbd90"/>
          <polygon points="471.25 664.6 439.86 659.89 440.05 643.31 500.3 643.31 614.51 659.55 646.37 659.39 655.87 659.51 656.06 674.66 697.6 674.66 697.41 659.58 697.41 659.58 738.77 659.58 738.77 659.58 732.6 674.66 666.79 699.52 583.8 699.52 555.19 681.2 471.25 664.6" fill="#484699"/>
          <polygon points="614.33 839.09 614.33 821.18 578.26 795.89 635 787.41 655.68 801.77 655.68 821.18 646.75 839.09 614.33 839.09" fill="#231f20"/>
          <polygon points="439 331.45 439.19 308.65 367.84 298.24 285.32 298.24 264.23 301.4 243.55 304.56 243.55 344.1 317.74 344.1 439 331.45" fill="#231f20"/>
          <polygon points="439.56 998.58 503.88 972.08 603.44 972.08 649.72 979.06 655.5 985.33 655.5 997.84 655.68 1037.11 587.27 1037.11 523.35 1013.23 471.55 1012.13 450.61 1002.94 439.56 998.58" fill="#231f20"/>
          <polygon points="222.88 660.3 222.88 659.15 226.7 657.97 226.91 661.23 224.09 661.23 222.88 660.3" fill="#484699"/>
          <polygon points="222.88 497.87 181.52 497.87 181.52 318.43 181.52 318.43 222.88 318.43 222.88 318.43 222.88 318.43 222.88 342.03 222.88 497.87" fill="#4dbd90"/>
          <polygon points="655.56 820.43 696.92 820.43 696.92 998.58 696.92 998.58 655.56 998.58 655.56 998.58 655.56 998.58 655.56 975.16 655.56 820.43" fill="#4dbd90"/>
          <polygon points="140.16 497.87 98.81 497.87 98.81 318.43 98.81 318.43 140.16 318.43 140.16 318.43 140.16 318.43 140.16 342.03 140.16 497.87" fill="#484699"/>
          <polygon points="776.95 401.77 790.66 401.77 789.65 358.06 789.77 330.41 785.08 319.6 779.94 319.6 779.94 320.66 772.93 327.85 772.15 368.09 776.95 401.77" fill="#484699"/>
          <polygon points="777.78 941.69 772.35 984 776.37 997.23 779.57 998.58 802.13 970.14 796.22 944.77 787.24 933.89 782.27 920.42 779.57 918.06 773.77 934.13 777.78 941.69" fill="#484699"/>
          <polygon points="281.53 660.09 98.81 660.09 136.87 648 281.53 648 281.53 660.09" fill="#4dbd90"/>
          <polygon points="779.57 998.58 736.09 998.58 736.09 1007.21 764.89 1007.21 779.57 1000.97 779.57 998.58" fill="#231f20"/>
          <rect x="779.53" y="738.32" width="5.76" height="70.73" fill="#231f20"/>
          <polygon points="439.36 320.78 439.07 320.66 438.66 319.39 438.82 318.83 439.07 318.38 439.24 318.38 439.36 318.43 439.36 319.12 439.36 320.78" fill="#231f20"/>
        </g>
        <g>
          <polygon points="-89.08 765.97 -241.88 659.39 98.87 659.39 81.11 699.65 13.68 727.2 -56.47 734.53 -60.01 747.7 -66.56 761.28 -89.08 765.97" fill="#484699"/>
          <polygon points="-241.09 659.71 -241.58 312.54 99.18 312.54 99.18 659.38 -241.09 659.71" fill="#231f20"/>
          <rect x="57.82" y="482.87" width="41.36" height="176.52" fill="#231f20"/>
          <polygon points="99.16 401.77 99.16 401.58 99.18 320.66 -71.2 393.03 -71.2 401.77 99.16 401.77" fill="#484699"/>
          <polygon points="-241.66 483.52 -241.66 483.15 -241.69 320.66 99.18 465.99 99.18 483.52 -241.66 483.52" fill="#4dbd90"/>
          <polygon points="96.18 401.77 109.9 401.77 108.89 358.06 109 330.41 104.32 319.6 99.18 319.6 99.18 320.66 92.17 327.85 91.39 368.09 96.18 401.77" fill="#484699"/>
          <polygon points="97.02 941.69 91.59 984 95.6 997.23 98.81 998.58 121.36 970.14 115.46 944.77 106.48 933.89 101.51 920.42 98.81 918.06 93 934.13 97.02 941.69" fill="#484699"/>
          <rect x="98.77" y="738.32" width="5.76" height="70.73" fill="#231f20"/>
        </g>
        <g>
          <rect x="696.85" y="140.85" width="41.36" height="183.6" fill="#231f20"/>
          <polygon points="439.56 318.43 503.88 291.93 603.44 291.93 649.72 298.91 655.5 305.18 655.5 317.69 655.68 356.95 587.27 356.95 523.35 333.08 471.55 331.97 450.61 322.79 439.56 318.43" fill="#231f20"/>
          <polygon points="779.57 318.43 736.09 318.43 736.09 327.06 764.89 327.06 779.57 320.82 779.57 318.43" fill="#231f20"/>
        </g>
      </g>
      <g clip-path="url(#clippath-6)">
        <g>
          <polygon points="439.07 1001.18 439.56 1340.24 98.81 1340.24 98.81 1001.51 439.07 1001.18"/>
          <polygon points="258.51 1216.95 232.07 1054.49 439.86 1049.02 439.86 1072.65 439.86 1122.43 442.15 1145.43 439.53 1178.03 438.81 1206.85 258.51 1216.95" fill="#d13e28"/>
          <path d="M351.65,1178.03c48.28,0,87.42-37.78,87.42-84.39v-92.45s-81.49,0-81.49,0h-11.85s-5.68,0-5.68,0h-75.81s0,19.56,0,19.56v13.29s0,17.62,0,17.62v22.02s0,1.26,0,1.26h0v9.03h0s0,1.14,0,1.14c0,16.97,1.23,22.56,1.23,22.56,6.93,39.92,42.87,70.35,86.19,70.35Z" fill="#231f20"/>
          <rect x="222.88" y="996.11" width="41.36" height="186.05" fill="#231f20"/>
          <rect x="181.52" y="998.58" width="41.36" height="179.44"/>
          <polygon points="140.16 1178.03 98.81 1178.03 98.81 998.58 98.81 998.58 140.16 998.58 140.16 998.58 140.16 998.58 140.16 1022.18 140.16 1178.03" fill="#828282"/>
          <rect x="140.16" y="994.14" width="41.36" height="188.02" fill="#231f20"/>
          <rect x="98.81" y="998.58" width="41.36" height="179.44"/>
          <path d="M351.65,1137.73c25.23,0,45.69-19.86,45.69-44.36s-20.46-44.36-45.69-44.36-45.69,19.86-45.69,44.36c0,24.5,20.46,44.36,45.69,44.36ZM351.4,1076.49c9.08,0,16.43,7.12,16.43,15.89,0,8.17-6.37,14.89-14.57,15.78,1.01-1.82,1.58-3.9,1.58-6.11,0-7.18-6.02-13-13.44-13-2.29,0-4.44.56-6.32,1.53.93-7.93,7.87-14.09,16.32-14.09Z" fill="#d13e28"/>
          <polygon points="439.68 1339.87 439.19 992.69 779.94 992.69 779.94 1339.53 439.68 1339.87" fill="#231f20"/>
          <polygon points="779.92 1081.92 779.92 1081.73 779.94 1000.81 609.56 1073.19 609.56 1081.92 779.92 1081.92" fill="#484699"/>
          <polygon points="439.1 1163.68 439.1 1163.3 439.07 1000.81 779.94 1146.14 779.94 1163.68 439.1 1163.68" fill="#4dbd90"/>
          <polygon points="439 1011.6 439.19 988.8 367.84 978.39 285.32 978.39 264.23 981.55 243.55 984.71 243.55 1024.25 317.74 1024.25 439 1011.6" fill="#231f20"/>
          <polygon points="222.88 1178.03 181.52 1178.03 181.52 998.58 181.52 998.58 222.88 998.58 222.88 998.58 222.88 998.58 222.88 1022.18 222.88 1178.03" fill="#4dbd90"/>
          <polygon points="140.16 1178.03 98.81 1178.03 98.81 998.58 98.81 998.58 140.16 998.58 140.16 998.58 140.16 998.58 140.16 1022.18 140.16 1178.03" fill="#484699"/>
          <polygon points="776.95 1081.92 790.66 1081.92 789.65 1038.21 789.77 1010.56 785.08 999.75 779.94 999.75 779.94 1000.81 772.93 1008 772.15 1048.24 776.95 1081.92" fill="#484699"/>
          <polygon points="439.36 1000.93 439.07 1000.81 438.66 999.54 438.82 998.98 439.07 998.53 439.24 998.53 439.36 998.58 439.36 999.27 439.36 1000.93" fill="#231f20"/>
        </g>
        <g>
          <polygon points="-241.09 1339.87 -241.58 992.69 99.18 992.69 99.18 1339.53 -241.09 1339.87" fill="#231f20"/>
          <polygon points="99.16 1081.92 99.16 1081.73 99.18 1000.81 -71.2 1073.19 -71.2 1081.92 99.16 1081.92" fill="#484699"/>
          <polygon points="-241.66 1163.68 -241.66 1163.3 -241.69 1000.81 99.18 1146.14 99.18 1163.68 -241.66 1163.68" fill="#4dbd90"/>
          <polygon points="96.18 1081.92 109.9 1081.92 108.89 1038.21 109 1010.56 104.32 999.75 99.18 999.75 99.18 1000.81 92.17 1008 91.39 1048.24 96.18 1081.92" fill="#484699"/>
        </g>
        <g>
          <rect x="696.85" y="821" width="41.36" height="183.6" fill="#231f20"/>
          <polygon points="439.56 998.58 503.88 972.08 603.44 972.08 649.72 979.06 655.5 985.33 655.5 997.84 655.68 1037.11 587.27 1037.11 523.35 1013.23 471.55 1012.13 450.61 1002.94 439.56 998.58" fill="#231f20"/>
          <polygon points="779.57 998.58 736.09 998.58 736.09 1007.21 764.89 1007.21 779.57 1000.97 779.57 998.58" fill="#231f20"/>
        </g>
      </g>
      <g clip-path="url(#clippath-7)">
        <polygon points="-241.09 659.71 -241.58 312.54 99.18 312.54 99.18 659.38 -241.09 659.71" fill="#231f20"/>
        <g>
          <polygon points="-241.46 317.69 -241.95 -21.37 98.81 -21.37 98.81 317.36 -241.46 317.69"/>
          <polygon points="91.96 160.96 -60.83 54.37 98.79 59.74 98.81 133.1 98.15 156.82 91.96 160.96" fill="#d13e28"/>
          <rect x="-25.27" y="140.85" width="41.36" height="177.59"/>
          <rect x="16.09" y="140.85" width="41.36" height="183.6" fill="#231f20"/>
          <polygon points="-89.08 85.82 -241.88 -20.76 98.87 -20.76 81.11 19.5 13.68 47.05 -56.47 54.37 -60.01 67.55 -66.56 81.13 -89.08 85.82" fill="#484699"/>
          <rect x="57.45" y="140.85" width="41.36" height="177.59" fill="#484699"/>
          <polygon points="98.79 59.74 98.79 59.55 98.81 -21.37 -71.57 51.01 -71.57 59.74 98.79 59.74" fill="#231f20"/>
          <polygon points="-241.92 140.85 -241.92 140.47 -241.95 -21.37 98.81 123.38 98.81 140.85 -241.92 140.85" fill="#231f20"/>
          <polygon points="-209.52 -15.55 -240.9 -20.26 -240.71 -36.84 -180.47 -36.84 -66.25 -20.6 -34.4 -20.76 -24.89 -20.64 -24.71 -5.49 16.84 -5.49 16.65 -20.57 16.65 -20.57 58.01 -20.57 58.01 -20.57 51.84 -5.49 -13.97 19.37 -96.96 19.37 -125.58 1.05 -209.52 -15.55" fill="#484699"/>
          <polygon points="-25.2 140.28 16.16 140.28 16.16 318.43 16.16 318.43 -25.2 318.43 -25.2 318.43 -25.2 318.43 -25.2 295.01 -25.2 140.28" fill="#4dbd90"/>
          <polygon points="97.02 261.54 91.59 303.85 95.6 317.08 98.81 318.43 121.36 289.99 115.46 264.62 106.48 253.74 101.51 240.27 98.81 237.91 93 253.98 97.02 261.54" fill="#484699"/>
          <polygon points="98.81 318.43 55.33 318.43 55.33 327.06 84.13 327.06 98.81 320.82 98.81 318.43" fill="#231f20"/>
          <rect x="98.77" y="58.17" width="5.76" height="70.73" fill="#231f20"/>
        </g>
      </g>
      <g clip-path="url(#clippath-8)">
        <polygon points="-241.09 1339.87 -241.58 992.69 99.18 992.69 99.18 1339.53 -241.09 1339.87" fill="#231f20"/>
        <polygon points="105.71 477.05 258.51 584.41 80.62 591.57 74.51 551.01 79.86 523.17 82.91 514.69 92.83 507.82 83.19 481.77 105.71 477.05" fill="#d13e28"/>
        <g>
          <polygon points="-241.46 997.84 -241.95 658.78 98.81 658.78 98.81 997.52 -241.46 997.84"/>
          <polygon points="91.96 841.11 -60.83 734.53 98.79 739.89 98.81 813.25 98.15 836.97 91.96 841.11" fill="#d13e28"/>
          <rect x="-25.27" y="821" width="41.36" height="177.59"/>
          <rect x="16.09" y="821" width="41.36" height="183.6" fill="#231f20"/>
          <polygon points="-89.08 765.97 -241.88 659.39 98.87 659.39 81.11 699.65 13.68 727.2 -56.47 734.53 -60.01 747.7 -66.56 761.28 -89.08 765.97" fill="#484699"/>
          <rect x="57.45" y="821" width="41.36" height="177.59" fill="#484699"/>
          <polygon points="98.79 739.89 98.79 739.7 98.81 658.78 -71.57 731.16 -71.57 739.89 98.79 739.89" fill="#231f20"/>
          <polygon points="-241.92 821 -241.92 820.63 -241.95 658.78 98.81 803.53 98.81 821 -241.92 821" fill="#231f20"/>
          <polygon points="-241.09 659.71 -241.58 312.54 99.18 312.54 99.18 659.38 -241.09 659.71" fill="#231f20"/>
          <rect x="-24.89" y="482.87" width="41.36" height="176.52" fill="#231f20"/>
          <polygon points="16.46 659.47 57.82 659.43 57.82 482.87 16.46 482.87 16.46 659.47" fill="#d13e28"/>
          <rect x="57.82" y="482.87" width="41.36" height="176.52" fill="#231f20"/>
          <polygon points="99.16 401.77 99.16 401.58 99.18 320.66 -71.2 393.03 -71.2 401.77 99.16 401.77" fill="#484699"/>
          <polygon points="-241.66 483.52 -241.66 483.15 -241.69 320.66 99.18 465.99 99.18 483.52 -241.66 483.52" fill="#4dbd90"/>
          <polygon points="-209.52 664.6 -240.9 659.89 -240.71 643.31 -180.47 643.31 -66.25 659.55 -34.4 659.39 -24.89 659.51 -24.71 674.66 16.84 674.66 16.65 659.58 16.65 659.58 58.01 659.58 58.01 659.58 51.84 674.66 -13.97 699.52 -96.96 699.52 -125.58 681.2 -209.52 664.6" fill="#484699"/>
          <polygon points="-25.2 820.43 16.16 820.43 16.16 998.58 16.16 998.58 -25.2 998.58 -25.2 998.58 -25.2 998.58 -25.2 975.16 -25.2 820.43" fill="#4dbd90"/>
          <polygon points="96.18 401.77 109.9 401.77 108.89 358.06 109 330.41 104.32 319.6 99.18 319.6 99.18 320.66 92.17 327.85 91.39 368.09 96.18 401.77" fill="#484699"/>
          <polygon points="97.02 941.69 91.59 984 95.6 997.23 98.81 998.58 121.36 970.14 115.46 944.77 106.48 933.89 101.51 920.42 98.81 918.06 93 934.13 97.02 941.69" fill="#484699"/>
          <polygon points="98.81 998.58 55.33 998.58 55.33 1007.21 84.13 1007.21 98.81 1000.97 98.81 998.58" fill="#231f20"/>
          <rect x="98.77" y="738.32" width="5.76" height="70.73" fill="#231f20"/>
        </g>
        <g>
          <rect x="16.09" y="140.85" width="41.36" height="183.6" fill="#231f20"/>
          <polygon points="98.81 318.43 55.33 318.43 55.33 327.06 84.13 327.06 98.81 320.82 98.81 318.43" fill="#231f20"/>
        </g>
      </g>
      <g clip-path="url(#clippath-9)">
        <g>
          <polygon points="-241.09 1339.87 -241.58 992.69 99.18 992.69 99.18 1339.53 -241.09 1339.87" fill="#231f20"/>
          <polygon points="99.16 1081.92 99.16 1081.73 99.18 1000.81 -71.2 1073.19 -71.2 1081.92 99.16 1081.92" fill="#484699"/>
          <polygon points="-241.66 1163.68 -241.66 1163.3 -241.69 1000.81 99.18 1146.14 99.18 1163.68 -241.66 1163.68" fill="#4dbd90"/>
          <polygon points="96.18 1081.92 109.9 1081.92 108.89 1038.21 109 1010.56 104.32 999.75 99.18 999.75 99.18 1000.81 92.17 1008 91.39 1048.24 96.18 1081.92" fill="#484699"/>
        </g>
        <g>
          <rect x="16.09" y="821" width="41.36" height="183.6" fill="#231f20"/>
          <polygon points="98.81 998.58 55.33 998.58 55.33 1007.21 84.13 1007.21 98.81 1000.97 98.81 998.58" fill="#231f20"/>
        </g>
      </g>
    </g>
  </g>
</svg>