<?xml version="1.0" encoding="UTF-8"?>
<svg id="Layer_2" data-name="Layer 2" xmlns="http://www.w3.org/2000/svg" viewBox="0 0 1721.65 716.51">
  <g id="Layer_3" data-name="Layer 3">
    <path d="M240.12,317.31c0,28.94,23.46,52.4,52.4,52.4,26.93,0,49.09-20.32,52.04-46.46-6.01,3.21-12.87,5.04-20.16,5.04-23.67,0-42.86-19.19-42.86-42.86,0-7.29,1.83-14.15,5.04-20.16-26.14,2.95-46.46,25.11-46.46,52.04Z" fill="#4cbc8f"/>
    <path d="M583.21,382.88v-4.37h-.01v-31.21h.01v-3.94h155.05v-8.26l-159.16-69.7C555.99,127.46,436.11,22.32,291.6,22.32,130.55,22.32,0,152.87,0,313.92v319.46h271.84v-174.27c-69.75-9.43-123.71-69.32-123.71-141.61,0-78.82,64.12-142.94,142.94-142.94s142.94,64.13,142.94,142.94c0,71.93-53.42,131.6-122.66,141.48v174.41h271.84v-174.41l155.07-67.91v-8.18h-155.05Z" fill="#10111b"/>
    <g>
      <path d="M775.88,278.61c-1.95-65.84-7.14-171.9-10.05-246.5,11.68,0,46.06-.97,64.22-1.62l3.57,165.09c30.49-.97,81.41-2.59,108.01-4.87l4.54,85.95-170.28,1.95Z" fill="#d13d28"/>
      <path d="M1069.73,277.63l-2.59-117.09-41.19-1.95-5.19,119.03-63.57-1.95c2.27-62.6,6.16-183.58,6.49-243.26l168.33-.65,40.54,245.2-102.82.65ZM1063.24,73.62l-41.19,1.3-4.87,49.95,52.54,1.3c-2.92-19.46-4.54-36.65-6.49-52.54Z" fill="#484599"/>
      <path d="M1182.6,94.71l1.3-64.54,103.46.97.97,64.54-105.74-.97ZM1190.71,277.96l-4.22-164.12,97.95-.97,10.05,162.82-103.79,2.27Z" fill="#4cbc8f"/>
      <path d="M1322.71,278.61c-1.95-65.84-7.14-171.9-10.05-246.5,11.68,0,46.06-.97,64.22-1.62l3.57,165.09c30.49-.97,81.41-2.59,108.01-4.87l4.54,85.95-170.28,1.95Z" fill="#d13d28"/>
      <path d="M1616.56,277.63l-2.59-117.09-41.19-1.95-5.19,119.03-63.57-1.95c2.27-62.6,6.16-183.58,6.49-243.26l168.33-.65,40.54,245.2-102.82.65ZM1610.07,73.62l-41.19,1.3-4.86,49.95,52.54,1.3c-2.92-19.46-4.54-36.65-6.49-52.54Z" fill="#484599"/>
    </g>
    <g>
      <path d="M786.73,632.54l-4.12-94.52,122.31,1.27,4.12-24.05-119.43-83.13c-.41-39.67-1.65-77.64-2.88-117.31l221.97-2.95,9.06,105.07c-35.42-2.53-85.66-2.95-122.31-2.95l-.82,16.46,125.19,90.72,3.29,108.87-236.38,2.53Z" fill="#10111b"/>
      <path d="M1047.82,630c.41-103.8-1.24-210.56-5.77-315.63,86.07,0,166.38,2.11,249.56-.42l3.29,76.38c-45.71.42-133.02,5.06-166.79,7.17l-1.65,48.1c48.18-.42,119.84-4.22,161.43-7.17l.82,69.62-156.49,6.33v50.21l163.9-8.86,1.65,77.64c-33.77-.84-165.55-1.69-249.97-3.38Z" fill="#10111b"/>
      <path d="M1316.32,394.55l1.65-83.97,131.37,1.27,1.24,83.97-134.25-1.27ZM1326.61,632.96l-5.35-213.52,124.37-1.27,12.77,211.83-131.78,2.95Z" fill="#10111b"/>
      <path d="M1609.53,509.32l4.94,120.68-121.08,2.53-18.53-319.43,225.68-2.95,2.88,77.22-115.72-2.53,4.94,67.51,111.19-2.11,1.65,60.76-95.95-1.69Z" fill="#10111b"/>
    </g>
  </g>
</svg>