<?xml version="1.0" encoding="UTF-8"?>
<svg id="Layer_2" data-name="Layer 2" xmlns="http://www.w3.org/2000/svg" viewBox="0 0 677.7 877.15">
  <g id="Layer_3" data-name="Layer 3">
    <g>
      <path d="M317.86,214.41c0,20.95,16.98,37.93,37.93,37.93,19.49,0,35.54-14.71,37.67-33.64-4.35,2.32-9.32,3.65-14.59,3.65-17.14,0-31.03-13.89-31.03-31.03,0-5.28,1.33-10.24,3.65-14.59-18.92,2.14-33.64,18.18-33.64,37.67Z" fill="#d13d28"/>
      <path d="M564.81,236.09v-3.03h1.53v-.03h111.36v-5.99l-115.1-50.59C546.13,77.83,461.78,2.31,359.39.05c-118.66-2.62-215.62,94.49-215.62,213.19v206.41l-.27-.04v47.68H0c0,19.07.6,36.93,1.71,53.69,9.91,87.49,61.34,251.18,307.51,251.18h0v105h60.28v-31.34h-28.94V317.38c-54.03-7.21-95.14-55.18-90.34-111.44,4.27-50.05,44.7-89.67,94.74-94.14,62.16-5.56,114.55,42.82,114.55,103.05,0,52.08-39.17,95.27-89.96,102.43v454.69c196.9-1.65,196.79-197.78,196.79-197.78v-257.04l111.36-49.21v-5.93h-111.36s-1.53,0-1.53,0v-25.93Z" fill="#d13d28"/>
    </g>
  </g>
</svg>