<?xml version="1.0" encoding="UTF-8"?>
<svg id="Layer_2" data-name="Layer 2" xmlns="http://www.w3.org/2000/svg" viewBox="0 0 405.24 583.64">
  <g id="Layer_3" data-name="Layer 3">
    <g>
      <g>
        <path d="M6.91,435.52c-.66-22.27-2.41-58.14-3.4-83.37,3.95,0,15.58-.33,21.72-.55l1.21,55.84c10.31-.33,27.53-.88,36.53-1.65l1.54,29.07-57.59.66Z" fill="#10111b"/>
        <path d="M106.3,435.19l-.88-39.6-13.93-.66-1.75,40.26-21.5-.66c.77-21.17,2.08-62.09,2.19-82.27l56.93-.22,13.71,82.93-34.77.22ZM104.1,366.19l-13.93.44-1.65,16.89,17.77.44c-.99-6.58-1.54-12.4-2.19-17.77Z" fill="#10111b"/>
        <path d="M144.48,373.32l.44-21.83,34.99.33.33,21.83-35.76-.33ZM147.22,435.3l-1.43-55.51,33.13-.33,3.4,55.07-35.1.77Z" fill="#10111b"/>
        <path d="M191.87,435.52c-.66-22.27-2.41-58.14-3.4-83.37,3.95,0,15.58-.33,21.72-.55l1.21,55.84c10.31-.33,27.53-.88,36.53-1.65l1.54,29.07-57.59.66Z" fill="#10111b"/>
        <path d="M291.25,435.19l-.88-39.6-13.93-.66-1.75,40.26-21.5-.66c.77-21.17,2.08-62.09,2.19-82.27l56.93-.22,13.71,82.93-34.77.22ZM289.06,366.19l-13.93.44-1.65,16.89,17.77.44c-.99-6.58-1.54-12.4-2.19-17.77Z" fill="#10111b"/>
      </g>
      <g>
        <path d="M135.89,159.51c0,15.65,12.68,28.33,28.33,28.33,14.56,0,26.54-10.99,28.14-25.12-3.25,1.74-6.96,2.73-10.9,2.73-12.8,0-23.17-10.38-23.17-23.17,0-3.94.99-7.65,2.73-10.9-14.13,1.6-25.12,13.58-25.12,28.14Z" fill="#10111b"/>
        <path d="M321.41,194.96v-2.36h0v-16.88h0v-2.13h83.84v-4.46l-86.06-37.69C306.69,56.85,241.86,0,163.72,0,76.64,0,6.05,70.59,6.05,157.67v172.74h146.99v-94.23c-37.72-5.1-66.89-37.48-66.89-76.57,0-42.62,34.67-77.29,77.29-77.29s77.29,34.67,77.29,77.29c0,38.89-28.88,71.16-66.32,76.5v94.3h146.99v-94.3l83.85-36.72v-4.43h-83.84Z" fill="#10111b"/>
      </g>
      <g>
        <path d="M10.58,555.23l-1.39-31.97,41.37.43,1.39-8.13-40.4-28.12c-.14-13.42-.56-26.26-.98-39.68l75.08-1,3.06,35.54c-11.98-.86-28.97-1-41.37-1l-.28,5.57,42.35,30.69,1.11,36.82-79.96.86Z" fill="#10111b"/>
        <path d="M98.89,554.38c.14-35.11-.42-71.22-1.95-106.76,29.11,0,56.28.71,84.41-.14l1.11,25.83c-15.46.14-44.99,1.71-56.42,2.43l-.56,16.27c16.3-.14,40.54-1.43,54.6-2.43l.28,23.55-52.93,2.14v16.98l55.44-3,.56,26.26c-11.42-.29-56-.57-84.55-1.14Z" fill="#10111b"/>
        <path d="M189.7,474.73l.56-28.4,44.44.43.42,28.4-45.41-.43ZM193.19,555.38l-1.81-72.22,42.07-.43,4.32,71.65-44.58,1Z" fill="#10111b"/>
        <path d="M288.88,513.55l1.67,40.82-40.95.86-6.27-108.05,76.33-1,.98,26.12-39.14-.86,1.67,22.84,37.61-.71.56,20.55-32.46-.57Z" fill="#10111b"/>
      </g>
    </g>
  </g>
</svg>