<?xml version="1.0" encoding="UTF-8"?>
<svg id="Layer_2" data-name="Layer 2" xmlns="http://www.w3.org/2000/svg" viewBox="0 0 777.7 977.15">
  <g id="Layer_3" data-name="Layer 3">
    <g>
      <path d="M405.79,352.35c-48.49,0-87.93-39.45-87.93-87.93,0-44.78,33.54-82.33,78.02-87.36l94.54-10.68-15.37,28.78,28.78-15.37-10.68,94.54c-5.02,44.48-42.58,78.02-87.36,78.02Z" fill="#edeef1"/>
      <path d="M367.86,264.41c0,20.95,16.98,37.93,37.93,37.93,19.49,0,35.54-14.71,37.67-33.64-4.35,2.32-9.32,3.65-14.59,3.65-17.14,0-31.03-13.89-31.03-31.03,0-5.28,1.33-10.24,3.65-14.59-18.92,2.14-33.64,18.18-33.64,37.67Z" fill="#d13d28"/>
      <path d="M309.22,977.15v-107.22c-44.2-4.06-84.4-13.65-119.96-28.65-43.59-18.4-80.67-45.04-110.21-79.19C25.78,700.51,7.76,627.23,2.02,576.6l-.13-1.16-.08-1.16c-1.2-18.19-1.82-37.37-1.82-56.99v-50h143.51v-56.25l.27.04v-147.84C143.78,118.09,260.83,0,404.7,0c1.92,0,3.86.02,5.79.06,115.61,2.55,214.73,81.19,245.33,190.77l121.87,53.57v106.12l-111.36,49.21v224.47c0,6.2-.8,62.49-29.82,120.6-18.18,36.41-43.5,65.7-75.24,87.06-26.66,17.93-57.39,29.92-91.77,35.83v109.46h-160.28ZM404.67,211.37c-1.74,0-3.51.08-5.27.24-25.98,2.32-47.2,23.21-49.37,48.59-2.43,28.46,18.28,53.78,47.14,57.63l7.74,1.03,7.66-1.08c26.76-3.77,46.93-26.52,46.93-52.92,0-29.49-24.6-53.49-54.83-53.49Z" fill="#edeef1"/>
      <path d="M614.81,286.08v-3.03h1.53v-.03h111.36v-5.99l-115.1-50.59c-16.46-98.61-100.81-174.13-203.2-176.39-118.66-2.62-215.62,94.49-215.62,213.19v206.41l-.27-.04v47.68H50c0,19.07.6,36.93,1.71,53.69,9.91,87.49,61.34,251.18,307.51,251.18h0v105h60.28v-31.34h-28.94V367.38c-54.03-7.21-95.14-55.18-90.34-111.44,4.27-50.05,44.7-89.67,94.74-94.14,62.16-5.56,114.55,42.82,114.55,103.05,0,52.08-39.17,95.27-89.96,102.43v454.69c196.9-1.65,196.79-197.78,196.79-197.78v-257.04l111.36-49.21v-5.93h-111.36s-1.53,0-1.53,0v-25.93Z" fill="#d13d28"/>
    </g>
  </g>
</svg>