<?xml version="1.0" encoding="UTF-8"?>
<svg id="Layer_2" data-name="Layer 2" xmlns="http://www.w3.org/2000/svg" viewBox="0 0 886.06 368.76">
  <g id="Layer_3" data-name="Layer 3">
    <g>
      <g>
        <path d="M123.58,163.31c0,14.89,12.07,26.97,26.97,26.97,13.86,0,25.26-10.46,26.78-23.91-3.09,1.65-6.62,2.59-10.37,2.59-12.18,0-22.06-9.88-22.06-22.06,0-3.75.94-7.28,2.59-10.37-13.45,1.52-23.91,12.92-23.91,26.78Z" fill="#10111b"/>
        <path d="M300.16,197.05v-2.25h0v-16.06h0v-2.03h79.8v-4.25l-81.91-35.87c-11.9-70.99-73.6-125.11-147.97-125.11C67.19,11.48,0,78.68,0,161.56v164.41h139.91v-89.69c-35.9-4.85-63.67-35.68-63.67-72.88,0-40.56,33-73.57,73.57-73.57s73.57,33,73.57,73.57c0,37.02-27.49,67.73-63.13,72.81v89.76h139.91v-89.76l79.81-34.95v-4.21h-79.8Z" fill="#10111b"/>
      </g>
      <g>
        <path d="M399.31,143.39c-1-33.89-3.67-88.47-5.17-126.87,6.01,0,23.7-.5,33.05-.83l1.84,84.97c15.69-.5,41.9-1.33,55.59-2.5l2.34,44.24-87.64,1Z" fill="#10111b"/>
        <path d="M550.55,142.89l-1.34-60.26-21.2-1-2.67,61.26-32.72-1c1.17-32.22,3.17-94.48,3.34-125.2l86.64-.33,20.87,126.2-52.92.33ZM547.21,37.89l-21.2.67-2.5,25.71,27.04.67c-1.5-10.02-2.34-18.86-3.34-27.04Z" fill="#10111b"/>
        <path d="M608.64,48.74l.67-33.22,53.25.5.5,33.22-54.42-.5ZM612.81,143.05l-2.17-84.47,50.41-.5,5.17,83.8-53.42,1.17Z" fill="#10111b"/>
        <path d="M680.75,143.39c-1-33.89-3.67-88.47-5.17-126.87,6.01,0,23.7-.5,33.05-.83l1.84,84.97c15.69-.5,41.9-1.33,55.59-2.5l2.34,44.24-87.64,1Z" fill="#10111b"/>
        <path d="M831.98,142.89l-1.33-60.26-21.2-1-2.67,61.26-32.72-1c1.17-32.22,3.17-94.48,3.34-125.2l86.64-.33,20.87,126.2-52.92.33ZM828.64,37.89l-21.2.67-2.5,25.71,27.04.67c-1.5-10.02-2.34-18.86-3.34-27.04Z" fill="#10111b"/>
      </g>
      <g>
        <path d="M404.9,325.54l-2.12-48.65,62.95.65,2.12-12.38-61.46-42.79c-.21-20.41-.85-39.96-1.48-60.38l114.24-1.52,4.66,54.08c-18.23-1.3-44.08-1.52-62.95-1.52l-.42,8.47,64.43,46.69,1.7,56.03-121.66,1.3Z" fill="#10111b"/>
        <path d="M539.27,324.24c.21-53.43-.64-108.37-2.97-162.45,44.3,0,85.62,1.09,128.44-.22l1.7,39.31c-23.53.22-68.46,2.61-85.84,3.69l-.85,24.76c24.8-.22,61.68-2.17,83.08-3.69l.42,35.83-80.54,3.26v25.84l84.35-4.56.85,39.96c-17.38-.43-85.2-.87-128.65-1.74Z" fill="#10111b"/>
        <path d="M677.46,203.05l.85-43.22,67.61.65.64,43.22-69.09-.65ZM682.76,325.76l-2.76-109.89,64.01-.65,6.57,109.02-67.82,1.52Z" fill="#10111b"/>
        <path d="M828.36,262.12l2.54,62.11-62.31,1.3-9.54-164.4,116.15-1.52,1.48,39.74-59.56-1.3,2.54,34.75,57.23-1.09.85,31.27-49.38-.87Z" fill="#10111b"/>
      </g>
    </g>
  </g>
</svg>