<?xml version="1.0" encoding="UTF-8"?>
<svg id="Layer_2" data-name="Layer 2" xmlns="http://www.w3.org/2000/svg" viewBox="0 0 641.11 475.43">
  <g id="Layer_3" data-name="Layer 3">
    <g>
      <g>
        <path d="M13.56,184.87c-1.29-43.69-4.73-114.06-6.67-163.56,7.75,0,30.56-.65,42.61-1.08l2.37,109.54c20.23-.64,54.02-1.72,71.67-3.23l3.01,57.03-112.99,1.29Z" fill="#10111b"/>
        <path d="M208.54,184.22l-1.72-77.69-27.33-1.29-3.44,78.98-42.18-1.29c1.51-41.54,4.09-121.81,4.3-161.41l111.69-.43,26.9,162.7-68.22.43ZM204.23,48.85l-27.33.86-3.23,33.14,34.86.86c-1.94-12.91-3.01-24.32-4.3-34.86Z" fill="#10111b"/>
        <path d="M283.43,62.84l.86-42.83,68.65.64.65,42.83-70.16-.65ZM288.81,184.44l-2.8-108.9,64.99-.64,6.67,108.04-68.87,1.51Z" fill="#10111b"/>
        <path d="M376.4,184.87c-1.29-43.69-4.73-114.06-6.67-163.56,7.75,0,30.56-.65,42.61-1.08l2.37,109.54c20.23-.64,54.02-1.72,71.66-3.23l3.01,57.03-112.99,1.29Z" fill="#10111b"/>
        <path d="M571.38,184.22l-1.72-77.69-27.33-1.29-3.44,78.98-42.18-1.29c1.51-41.54,4.09-121.81,4.3-161.41l111.69-.43,26.9,162.7-68.22.43ZM567.07,48.85l-27.33.86-3.23,33.14,34.86.86c-1.94-12.91-3.01-24.32-4.3-34.86Z" fill="#10111b"/>
      </g>
      <g>
        <path d="M20.76,419.71l-2.73-62.72,81.16.84,2.73-15.96-79.24-55.16c-.27-26.32-1.09-51.52-1.91-77.84l147.28-1.96,6.01,69.72c-23.5-1.68-56.84-1.96-81.16-1.96l-.55,10.92,83.07,60.2,2.19,72.24-156.85,1.68Z" fill="#10111b"/>
        <path d="M194,418.03c.27-68.88-.82-139.72-3.83-209.44,57.11,0,110.39,1.4,165.59-.28l2.19,50.68c-30.33.28-88.26,3.36-110.67,4.76l-1.09,31.92c31.97-.28,79.52-2.8,107.12-4.76l.55,46.2-103.84,4.2v33.32l108.75-5.88,1.09,51.52c-22.41-.56-109.85-1.12-165.87-2.24Z" fill="#10111b"/>
        <path d="M372.16,261.79l1.09-55.72,87.17.84.82,55.72-89.08-.84ZM378.99,419.99l-3.55-141.68,82.52-.84,8.47,140.56-87.44,1.96Z" fill="#10111b"/>
        <path d="M566.71,337.95l3.28,80.08-80.34,1.68-12.3-211.96,149.74-1.96,1.91,51.24-76.79-1.68,3.28,44.8,73.78-1.4,1.09,40.32-63.67-1.12Z" fill="#10111b"/>
      </g>
    </g>
  </g>
</svg>