<?xml version="1.0" encoding="UTF-8"?>
<svg id="Layer_2" data-name="Layer 2" xmlns="http://www.w3.org/2000/svg" viewBox="0 0 530.64 439.21">
  <g id="Layer_3" data-name="Layer 3">
    <g>
      <path d="M172.59,212.03c0,20.8,16.86,37.66,37.66,37.66,19.35,0,35.28-14.61,37.4-33.39-4.32,2.31-9.25,3.62-14.49,3.62-17.01,0-30.81-13.79-30.81-30.81,0-5.24,1.32-10.17,3.62-14.49-18.79,2.12-33.39,18.05-33.39,37.4Z" fill="#484599"/>
      <path d="M419.2,259.16v-3.14h0v-22.43h0v-2.83h111.45v-5.93l-114.4-50.1C399.63,75.57,313.46,0,209.59,0,93.84,0,0,93.84,0,209.59v229.62h195.39v-125.26c-50.13-6.78-88.92-49.83-88.92-101.79,0-56.65,46.09-102.74,102.74-102.74s102.74,46.09,102.74,102.74c0,51.7-38.39,94.59-88.16,101.69v125.36h195.39v-125.36l111.46-48.81v-5.88h-111.45Z" fill="#484599"/>
    </g>
  </g>
</svg>