<?xml version="1.0" encoding="UTF-8"?>
<svg id="Layer_2" data-name="Layer 2" xmlns="http://www.w3.org/2000/svg" viewBox="0 0 852.04 730.95">
  <g id="Layer_15" data-name="Layer 15">
    <g>
      <path d="M852.04,372.38c0-29.64-17.54-56.47-44.69-68.36l-117.3-51.37c-19.19-65.04-57.05-123.74-109.16-168.29C517.24,29.96,436.03,0,352.21,0,158,0,0,158,0,352.21v304.11c0,41.21,33.41,74.63,74.63,74.63h258.78c6.5,0,12.8-.83,18.81-2.39,6.01,1.56,12.31,2.39,18.81,2.39h258.78c41.21,0,74.63-33.41,74.63-74.63v-117.24l102.92-45.07c27.15-11.89,44.69-38.72,44.69-68.36v-7.79c0-6.5-.83-12.8-2.39-18.81,1.56-6.01,2.39-12.31,2.39-18.81v-7.86Z" fill="#fff"/>
      <path d="M303.2,355.44c0,27.55,22.33,49.88,49.88,49.88,25.63,0,46.73-19.34,49.54-44.23-5.72,3.06-12.25,4.8-19.19,4.8-22.53,0-40.8-18.27-40.8-40.8,0-6.94,1.74-13.47,4.8-19.19-24.88,2.81-44.23,23.9-44.23,49.54Z" fill="#4cbc8f"/>
      <path d="M629.81,417.86v-4.16h-.01v-29.71h.01v-3.75h147.6v-7.86l-151.51-66.35c-22-131.31-136.13-231.4-273.69-231.4-153.31,0-277.59,124.28-277.59,277.59v304.11h258.78v-165.9c-66.4-8.98-117.76-65.99-117.76-134.81,0-75.03,61.04-136.07,136.07-136.07s136.07,61.05,136.07,136.07c0,68.47-50.85,125.27-116.77,134.68v166.02h258.78v-166.02l147.61-64.65v-7.79h-147.6Z" fill="#4cbc8f"/>
    </g>
  </g>
</svg>