<?xml version="1.0" encoding="UTF-8"?>
<svg id="Layer_2" data-name="Layer 2" xmlns="http://www.w3.org/2000/svg" xmlns:xlink="http://www.w3.org/1999/xlink" viewBox="0 0 412 900">
  <defs>
    <clipPath id="clippath">
      <rect width="412" height="900" fill="none"/>
    </clipPath>
    <clipPath id="clippath-1">
      <rect x="375.48" y="-273.39" width="340.63" height="340.63" fill="none"/>
    </clipPath>
    <clipPath id="clippath-2">
      <rect x="375.48" y="-273.24" width="340.63" height="340.32" fill="none"/>
    </clipPath>
    <clipPath id="clippath-3">
      <rect x="375.48" y="66.24" width="340.63" height="340.63" fill="none"/>
    </clipPath>
    <clipPath id="clippath-4">
      <rect x="375.48" y="66.39" width="340.63" height="340.32" fill="none"/>
    </clipPath>
    <clipPath id="clippath-5">
      <rect x="375.48" y="405.87" width="340.63" height="340.63" fill="none"/>
    </clipPath>
    <clipPath id="clippath-6">
      <rect x="375.48" y="406.02" width="340.63" height="340.32" fill="none"/>
    </clipPath>
    <clipPath id="clippath-7">
      <rect x="375.48" y="746.5" width="340.63" height="340.63" fill="none"/>
    </clipPath>
    <clipPath id="clippath-8">
      <rect x="375.48" y="746.65" width="340.63" height="340.32" fill="none"/>
    </clipPath>
    <clipPath id="clippath-9">
      <rect x="34.85" y="-273.39" width="340.63" height="340.63" fill="none"/>
    </clipPath>
    <clipPath id="clippath-10">
      <rect x="34.85" y="-273.24" width="340.63" height="340.32" fill="none"/>
    </clipPath>
    <clipPath id="clippath-11">
      <rect x="34.85" y="66.24" width="340.63" height="340.63" fill="none"/>
    </clipPath>
    <clipPath id="clippath-12">
      <rect x="34.85" y="66.39" width="340.63" height="340.32" fill="none"/>
    </clipPath>
    <clipPath id="clippath-13">
      <rect x="34.85" y="405.87" width="340.63" height="340.63" fill="none"/>
    </clipPath>
    <clipPath id="clippath-14">
      <rect x="34.85" y="406.02" width="340.63" height="340.32" fill="none"/>
    </clipPath>
    <clipPath id="clippath-15">
      <rect x="34.85" y="746.5" width="340.63" height="340.63" fill="none"/>
    </clipPath>
    <clipPath id="clippath-16">
      <rect x="34.85" y="746.65" width="340.63" height="340.32" fill="none"/>
    </clipPath>
    <clipPath id="clippath-17">
      <rect x="-305.78" y="-273.39" width="340.63" height="340.63" fill="none"/>
    </clipPath>
    <clipPath id="clippath-18">
      <rect x="-305.78" y="-273.24" width="340.63" height="340.32" fill="none"/>
    </clipPath>
    <clipPath id="clippath-19">
      <rect x="-305.78" y="66.24" width="340.63" height="340.63" fill="none"/>
    </clipPath>
    <clipPath id="clippath-20">
      <rect x="-305.78" y="66.39" width="340.63" height="340.32" fill="none"/>
    </clipPath>
    <clipPath id="clippath-21">
      <rect x="-305.78" y="405.87" width="340.63" height="340.63" fill="none"/>
    </clipPath>
    <clipPath id="clippath-22">
      <rect x="-305.78" y="406.02" width="340.63" height="340.32" fill="none"/>
    </clipPath>
    <clipPath id="clippath-23">
      <rect x="-305.78" y="746.5" width="340.63" height="340.63" fill="none"/>
    </clipPath>
    <clipPath id="clippath-24">
      <rect x="-305.78" y="746.65" width="340.63" height="340.32" fill="none"/>
    </clipPath>
  </defs>
  <g id="Layer_2-2" data-name="Layer 2">
    <g clip-path="url(#clippath)">
      <g clip-path="url(#clippath-1)">
        <g clip-path="url(#clippath-2)">
          <polygon points="375.48 65.62 375.48 -103.87 545.98 -103.87 545.74 65.78 375.48 65.62"/>
          <polygon points="396.18 55.28 396.18 67.08 375.48 67.08 375.48 -22.7 396.18 -22.7 396.18 55.28" fill="#828282"/>
          <rect x="396.18" y="-24.77" width="20.69" height="94.08" fill="#231f20"/>
          <rect x="375.48" y="-22.7" width="20.7" height="89.79"/>
          <polygon points="396.18 55.28 396.18 67.08 375.48 67.08 375.48 -22.7 396.18 -22.7 396.18 55.28" fill="#484699"/>
          <polygon points="375.67 -103.52 375.67 70.03 205.17 70.03 205.41 -103.68 375.67 -103.52" fill="#231f20"/>
          <polygon points="290.42 25.39 290.42 29.76 375.67 65.97 375.66 25.48 375.66 25.39 290.42 25.39" fill="#484699"/>
          <polygon points="375.67 -15.52 375.67 -6.75 205.11 65.97 205.12 -15.34 205.12 -15.52 375.67 -15.52" fill="#4dbd90"/>
          <polygon points="371.77 42.24 372.16 62.38 375.67 65.97 375.67 66.5 378.24 66.5 380.59 61.09 380.53 47.25 381.03 25.39 374.17 25.39 371.77 42.24" fill="#484699"/>
        </g>
      </g>
      <g clip-path="url(#clippath-3)">
        <g clip-path="url(#clippath-4)">
          <rect x="396.18" y="-25.47" width="20.69" height="94.08" fill="#231f20"/>
          <polygon points="375.67 -104.21 375.67 69.34 205.17 69.34 205.41 -104.38 375.67 -104.21" fill="#231f20"/>
          <polygon points="375.48 405.25 375.48 235.76 545.98 235.76 545.74 405.41 375.48 405.25"/>
          <polygon points="458.26 287.12 454.98 280.27 453.21 273.63 418.11 269.94 384.37 256.05 375.48 235.76 545.98 235.76 469.53 289.48 458.26 287.12" fill="#4dbd90"/>
          <polygon points="367.67 324.98 372.5 311.95 367.53 308.52 366 304.27 363.33 290.34 366.38 270.05 455.4 273.63 378.94 327.35 367.67 324.98" fill="#d13e28"/>
          <polygon points="396.18 394.91 396.18 406.71 375.48 406.71 375.48 316.93 396.18 316.93 396.18 394.91" fill="#828282"/>
          <rect x="396.18" y="314.86" width="20.69" height="94.08" fill="#231f20"/>
          <rect x="375.48" y="316.93" width="20.7" height="89.79"/>
          <polygon points="460.74 276.34 460.74 271.98 375.48 235.76 375.49 276.25 375.49 276.34 460.74 276.34" fill="#231f20"/>
          <polygon points="375.48 316.93 375.48 308.19 545.98 235.76 545.97 316.74 545.97 316.93 375.48 316.93" fill="#231f20"/>
          <polygon points="375.48 235.88 375.48 66.39 545.98 66.39 545.74 236.04 375.48 235.88" fill="#231f20"/>
          <rect x="396.18" y="147.55" width="20.69" height="88.32" fill="#d13e28"/>
          <rect x="375.48" y="147.55" width="20.7" height="88.32" fill="#231f20"/>
          <polygon points="460.74 106.97 460.74 102.6 375.48 66.39 375.49 106.88 375.49 106.97 460.74 106.97" fill="#484699"/>
          <polygon points="375.48 147.55 375.48 138.82 545.98 66.39 545.97 147.37 545.97 147.55 375.48 147.55" fill="#d13e28"/>
          <polygon points="416.78 225.2 416.78 235.97 419.28 241.81 396.18 240.32 396.08 227.54 416.78 225.2" fill="#d13e28"/>
          <polygon points="396.18 394.91 396.18 406.71 375.48 406.71 375.48 316.93 396.18 316.93 396.18 394.91" fill="#484699"/>
          <polygon points="466.91 241.81 394.53 241.81 375.48 235.76 466.91 235.76 466.91 241.81" fill="#4dbd90"/>
          <polygon points="292.74 185.13 296.02 191.92 297.79 198.52 332.89 202.18 366.63 215.96 375.52 236.11 205.01 236.11 281.47 182.78 292.74 185.13" fill="#484699"/>
          <polygon points="375.67 236.11 375.67 409.66 205.17 409.66 205.41 235.95 375.67 236.11" fill="#231f20"/>
          <rect x="354.98" y="236.11" width="20.7" height="88.32" fill="#231f20"/>
          <polygon points="290.42 365.02 290.42 369.39 375.67 405.6 375.66 365.11 375.66 365.02 290.42 365.02" fill="#484699"/>
          <polygon points="375.67 324.11 375.67 332.88 205.11 405.6 205.12 324.29 205.12 324.11 375.67 324.11" fill="#4dbd90"/>
          <polygon points="371.77 381.87 372.16 402.01 375.67 405.6 375.67 406.13 378.24 406.13 380.59 400.72 380.53 386.88 381.03 365.02 374.17 365.02 371.77 381.87" fill="#484699"/>
          <polygon points="372.58 98.64 375.48 106.68 376.84 105.5 379.32 98.76 383.81 93.32 386.77 80.62 375.48 66.39 373.88 67.06 371.87 73.68 374.59 94.86 372.58 98.64" fill="#484699"/>
          <rect x="375.46" y="161.22" width="2.88" height="35.39" fill="#231f20"/>
        </g>
      </g>
      <g clip-path="url(#clippath-5)">
        <g clip-path="url(#clippath-6)">
          <rect x="396.18" y="314.16" width="20.69" height="94.08" fill="#231f20"/>
          <polygon points="375.67 235.42 375.67 408.97 205.17 408.97 205.41 235.25 375.67 235.42" fill="#231f20"/>
          <polygon points="375.48 744.88 375.48 575.39 545.98 575.39 545.74 745.04 375.48 744.88"/>
          <polygon points="458.26 626.75 454.98 619.9 453.21 613.26 418.11 609.57 384.37 595.68 375.48 575.39 545.98 575.39 469.53 629.11 458.26 626.75" fill="#4dbd90"/>
          <polygon points="367.67 664.61 372.5 651.58 367.53 648.15 366 643.9 363.33 629.97 366.38 609.68 455.4 613.26 378.94 666.98 367.67 664.61" fill="#d13e28"/>
          <polygon points="396.18 734.54 396.18 746.34 375.48 746.34 375.48 656.56 396.18 656.56 396.18 734.54" fill="#828282"/>
          <rect x="396.18" y="654.49" width="20.69" height="94.08" fill="#231f20"/>
          <rect x="375.48" y="656.56" width="20.7" height="89.79"/>
          <polygon points="460.74 615.97 460.74 611.61 375.48 575.39 375.49 615.88 375.49 615.97 460.74 615.97" fill="#231f20"/>
          <polygon points="375.48 656.56 375.48 647.82 545.98 575.39 545.97 656.37 545.97 656.56 375.48 656.56" fill="#231f20"/>
          <polygon points="375.48 575.51 375.48 406.02 545.98 406.02 545.74 575.67 375.48 575.51" fill="#231f20"/>
          <rect x="396.18" y="487.18" width="20.69" height="88.32" fill="#d13e28"/>
          <rect x="375.48" y="487.18" width="20.7" height="88.32" fill="#231f20"/>
          <polygon points="460.74 446.6 460.74 442.23 375.48 406.02 375.49 446.51 375.49 446.6 460.74 446.6" fill="#484699"/>
          <polygon points="375.48 487.18 375.48 478.45 545.98 406.02 545.97 487 545.97 487.18 375.48 487.18" fill="#d13e28"/>
          <polygon points="416.78 564.83 416.78 575.6 419.28 581.44 396.18 579.95 396.08 567.17 416.78 564.83" fill="#d13e28"/>
          <polygon points="396.18 734.54 396.18 746.34 375.48 746.34 375.48 656.56 396.18 656.56 396.18 734.54" fill="#484699"/>
          <polygon points="466.91 581.44 394.53 581.44 375.48 575.39 466.91 575.39 466.91 581.44" fill="#4dbd90"/>
          <polygon points="292.74 524.76 296.02 531.55 297.79 538.15 332.89 541.81 366.63 555.59 375.52 575.74 205.01 575.74 281.47 522.41 292.74 524.76" fill="#484699"/>
          <polygon points="375.67 575.74 375.67 749.29 205.17 749.29 205.41 575.58 375.67 575.74" fill="#231f20"/>
          <rect x="354.98" y="575.74" width="20.7" height="88.32" fill="#231f20"/>
          <polygon points="290.42 704.65 290.42 709.02 375.67 745.23 375.66 704.74 375.66 704.65 290.42 704.65" fill="#484699"/>
          <polygon points="375.67 663.74 375.67 672.51 205.11 745.23 205.12 663.92 205.12 663.74 375.67 663.74" fill="#4dbd90"/>
          <polygon points="371.77 721.5 372.16 741.64 375.67 745.23 375.67 745.76 378.24 745.76 380.59 740.35 380.53 726.51 381.03 704.65 374.17 704.65 371.77 721.5" fill="#484699"/>
          <polygon points="372.58 438.27 375.48 446.31 376.84 445.13 379.32 438.39 383.81 432.95 386.77 420.25 375.48 406.02 373.88 406.69 371.87 413.31 374.59 434.49 372.58 438.27" fill="#484699"/>
          <rect x="375.46" y="500.85" width="2.88" height="35.39" fill="#231f20"/>
        </g>
      </g>
      <g clip-path="url(#clippath-7)">
        <g clip-path="url(#clippath-8)">
          <rect x="396.18" y="654.79" width="20.69" height="94.08" fill="#231f20"/>
          <polygon points="375.67 576.05 375.67 749.6 205.17 749.6 205.41 575.88 375.67 576.05" fill="#231f20"/>
          <polygon points="375.48 916.14 375.48 746.65 545.98 746.65 545.74 916.3 375.48 916.14" fill="#231f20"/>
          <rect x="396.18" y="827.81" width="20.69" height="88.32" fill="#d13e28"/>
          <rect x="375.48" y="827.81" width="20.7" height="88.32" fill="#231f20"/>
          <polygon points="460.74 787.23 460.74 782.86 375.48 746.65 375.49 787.14 375.49 787.23 460.74 787.23" fill="#484699"/>
          <polygon points="375.48 827.81 375.48 819.08 545.98 746.65 545.97 827.63 545.97 827.81 375.48 827.81" fill="#d13e28"/>
          <polygon points="292.74 865.39 296.02 872.18 297.79 878.78 332.89 882.44 366.63 896.22 375.52 916.37 205.01 916.37 281.47 863.04 292.74 865.39" fill="#484699"/>
          <polygon points="372.58 778.9 375.48 786.94 376.84 785.76 379.32 779.02 383.81 773.58 386.77 760.88 375.48 746.65 373.88 747.32 371.87 753.94 374.59 775.12 372.58 778.9" fill="#484699"/>
          <rect x="375.46" y="841.48" width="2.88" height="35.39" fill="#231f20"/>
        </g>
      </g>
      <g clip-path="url(#clippath-9)">
        <g clip-path="url(#clippath-10)">
          <polygon points="34.85 65.62 34.85 -103.87 205.35 -103.87 205.11 65.78 34.85 65.62"/>
          <polygon points="204.98 -37.12 205.34 -22.7 206.65 -6.39 205.51 5.11 205.51 30.02 205.51 41.85 101.53 39.11 114.77 -42.18 204.98 -37.12" fill="#d13e28"/>
          <path d="M161.38-22.7c-21.68,0-39.66,15.23-43.13,35.2,0,0-.62,2.8-.62,11.29v41.99h87.48V19.52c0-23.32-19.58-42.23-43.74-42.23h0Z" fill="#231f20"/>
          <rect x="96.93" y="-24.77" width="20.7" height="93.09" fill="#231f20"/>
          <rect x="76.24" y="-22.7" width="20.7" height="89.79"/>
          <polygon points="55.55 55.28 55.55 67.08 34.85 67.08 34.85 -22.7 55.55 -22.7 55.55 55.28" fill="#828282"/>
          <rect x="55.55" y="-24.77" width="20.7" height="94.08" fill="#231f20"/>
          <rect x="34.85" y="-22.7" width="20.7" height="89.79"/>
          <path d="M161.37-2.54c12.62,0,22.86,9.94,22.86,22.2s-10.24,22.2-22.86,22.2-22.86-9.94-22.86-22.2,10.24-22.2,22.86-22.2ZM161.25,28.1c4.54,0,8.22-3.56,8.22-7.95,0-4.08-3.19-7.45-7.29-7.9.51.91.79,1.95.79,3.06,0,3.59-3.01,6.5-6.73,6.5-1.14,0-2.22-.28-3.16-.77.47,3.97,3.94,7.05,8.17,7.05Z" fill="#d13e28"/>
          <polygon points="375.67 -103.52 375.67 70.03 205.17 70.03 205.41 -103.68 375.67 -103.52" fill="#231f20"/>
          <polygon points="290.42 25.39 290.42 29.76 375.67 65.97 375.66 25.48 375.66 25.39 290.42 25.39" fill="#484699"/>
          <polygon points="375.67 -15.52 375.67 -6.75 205.11 65.97 205.12 -15.34 205.12 -15.52 375.67 -15.52" fill="#4dbd90"/>
          <polygon points="144.4 54.24 107.28 54.24 107.28 74.02 117.63 75.61 128.18 77.19 169.47 77.19 205.17 71.98 205.07 60.57 144.4 54.24" fill="#231f20"/>
          <polygon points="96.93 55.28 96.93 67.08 76.24 67.08 76.24 -22.7 96.93 -22.7 96.93 55.28" fill="#4dbd90"/>
          <polygon points="55.55 55.28 55.55 67.08 34.85 67.08 34.85 -22.7 55.55 -22.7 55.55 55.28" fill="#484699"/>
          <polygon points="371.78 42.24 372.17 62.38 375.67 65.97 375.67 66.5 378.24 66.5 380.59 61.09 380.53 47.25 381.03 25.39 374.17 25.39 371.78 42.24" fill="#484699"/>
          <polygon points="205.26 66.74 205.26 67.08 205.19 67.11 205.11 67.11 204.98 66.89 204.9 66.6 205.11 65.97 205.26 65.91 205.26 66.74" fill="#231f20"/>
          <polygon points="35.04 -103.52 35.04 70.03 -135.46 70.03 -135.22 -103.68 35.04 -103.52" fill="#231f20"/>
          <polygon points="-50.21 25.39 -50.21 29.76 35.04 65.97 35.03 25.48 35.03 25.39 -50.21 25.39" fill="#484699"/>
          <polygon points="35.04 -15.52 35.04 -6.75 -135.52 65.97 -135.51 -15.34 -135.51 -15.52 35.04 -15.52" fill="#4dbd90"/>
          <polygon points="31.14 42.24 31.53 62.38 35.04 65.97 35.04 66.5 37.61 66.5 39.96 61.09 39.9 47.25 40.4 25.39 33.54 25.39 31.14 42.24" fill="#484699"/>
          <rect x="334.1" y="64.08" width="20.7" height="91.87" fill="#231f20"/>
          <polygon points="210.89 64.9 221.36 60.31 247.28 59.76 279.27 47.81 313.5 47.81 313.4 67.45 313.4 73.71 310.52 76.85 287.35 80.34 237.54 80.34 205.35 67.08 210.89 64.9" fill="#231f20"/>
          <polygon points="375.48 65.89 368.14 62.77 353.73 62.77 353.73 67.08 375.48 67.08 375.48 65.89" fill="#231f20"/>
        </g>
      </g>
      <g clip-path="url(#clippath-11)">
        <g clip-path="url(#clippath-12)">
          <rect x="96.93" y="-25.47" width="20.7" height="93.09" fill="#231f20"/>
          <rect x="55.55" y="-25.47" width="20.7" height="94.08" fill="#231f20"/>
          <polygon points="375.67 -104.21 375.67 69.34 205.17 69.34 205.41 -104.38 375.67 -104.21" fill="#231f20"/>
          <polygon points="144.4 53.54 107.28 53.54 107.28 73.33 117.63 74.91 128.18 76.49 169.47 76.49 205.17 71.28 205.07 59.87 144.4 53.54" fill="#231f20"/>
          <polygon points="205.26 66.04 205.26 66.39 205.19 66.41 205.11 66.41 204.98 66.19 204.9 65.91 205.11 65.27 205.26 65.21 205.26 66.04" fill="#231f20"/>
          <polygon points="35.04 -104.21 35.04 69.34 -135.46 69.34 -135.22 -104.38 35.04 -104.21" fill="#231f20"/>
          <polygon points="367.67 324.98 372.5 311.95 367.53 308.52 366 304.27 363.33 290.34 366.39 270.05 455.4 273.63 378.94 327.35 367.67 324.98" fill="#d13e28"/>
          <polygon points="34.85 405.25 34.85 235.76 205.35 235.76 205.11 405.41 34.85 405.25"/>
          <polygon points="204.98 302.51 205.34 316.93 206.65 333.24 205.51 344.74 205.51 369.65 205.51 381.48 101.53 378.74 114.77 297.45 204.98 302.51" fill="#d13e28"/>
          <path d="M161.38,316.93c-21.68,0-39.66,15.23-43.13,35.2,0,0-.62,2.8-.62,11.29v41.99h87.48v-46.25c0-23.32-19.58-42.23-43.74-42.23h0Z" fill="#231f20"/>
          <rect x="96.93" y="314.86" width="20.7" height="93.09" fill="#231f20"/>
          <polygon points="117.63 287.12 114.35 280.27 112.58 273.63 77.48 269.94 43.74 256.05 34.85 235.76 205.35 235.76 128.9 289.48 117.63 287.12" fill="#4dbd90"/>
          <polygon points="27.04 324.98 31.87 311.95 26.9 308.52 25.37 304.27 22.7 290.34 25.75 270.05 114.77 273.63 38.31 327.35 27.04 324.98" fill="#d13e28"/>
          <rect x="76.24" y="316.93" width="20.7" height="89.79"/>
          <polygon points="55.55 394.91 55.55 406.71 34.85 406.71 34.85 316.93 55.55 316.93 55.55 394.91" fill="#828282"/>
          <rect x="55.55" y="314.86" width="20.7" height="94.08" fill="#231f20"/>
          <rect x="34.85" y="316.93" width="20.7" height="89.79"/>
          <polygon points="120.11 276.34 120.11 271.98 34.85 235.76 34.86 276.25 34.86 276.34 120.11 276.34" fill="#231f20"/>
          <polygon points="34.85 316.93 34.85 308.19 205.35 235.76 205.34 316.74 205.34 316.93 34.85 316.93" fill="#231f20"/>
          <path d="M161.37,337.09c12.62,0,22.86,9.94,22.86,22.2s-10.24,22.2-22.86,22.2-22.86-9.94-22.86-22.2,10.24-22.2,22.86-22.2ZM161.25,367.73c4.54,0,8.22-3.56,8.22-7.95,0-4.08-3.19-7.45-7.29-7.9.51.91.79,1.95.79,3.06,0,3.59-3.01,6.5-6.73,6.5-1.14,0-2.22-.28-3.16-.77.47,3.97,3.94,7.05,8.17,7.05Z" fill="#d13e28"/>
          <polygon points="375.48 66.92 375.48 236.41 204.98 236.41 205.23 66.76 375.48 66.92"/>
          <polygon points="205.39 169.85 205.03 155.53 203.72 139.34 204.86 127.91 204.86 103.18 204.86 91.44 308.83 94.16 295.6 174.86 205.39 169.85" fill="#d13e28"/>
          <polygon points="375.16 147.25 375.48 159.12 375.48 195.83 295.6 198.52 372.06 145.18 375.16 147.25" fill="#d13e28"/>
          <path d="M248.96,155.24c21.68,0,39.66-15.23,43.13-35.2,0,0,.62-2.8.62-11.29v-41.99h-87.48v46.26c0,23.32,19.58,42.23,43.74,42.23h0Z" fill="#231f20"/>
          <rect x="292.71" y="66.76" width="20.7" height="88.48" fill="#231f20"/>
          <rect x="313.4" y="66.39" width="20.7" height="88.86"/>
          <rect x="334.1" y="63.38" width="20.7" height="91.87" fill="#231f20"/>
          <polygon points="292.74 185.13 296.02 191.92 297.79 198.52 332.89 202.18 366.63 215.96 375.52 236.11 205.02 236.11 281.47 182.78 292.74 185.13" fill="#484699"/>
          <rect x="354.79" y="66.39" width="20.7" height="88.86" fill="#484699"/>
          <polygon points="290.24 195.83 290.24 200.2 375.48 236.41 375.48 195.92 375.48 195.83 290.24 195.83" fill="#231f20"/>
          <polygon points="375.48 155.25 375.48 163.99 204.98 236.41 205 155.43 205 155.25 375.48 155.25" fill="#231f20"/>
          <path d="M248.97,135.09c-12.62,0-22.86-9.94-22.86-22.2s10.24-22.2,22.86-22.2,22.86,9.94,22.86,22.2-10.24,22.2-22.86,22.2ZM257.26,111.49c-.47-3.97-3.94-7.05-8.17-7.05-4.54,0-8.22,3.56-8.22,7.95,0,4.08,3.19,7.45,7.29,7.9-.51-.91-.79-1.95-.79-3.06,0-3.59,3.01-6.5,6.72-6.5,1.14,0,2.22.28,3.16.77Z" fill="#d13e28"/>
          <polygon points="34.85 235.88 34.85 66.39 205.35 66.39 205.11 236.04 34.85 235.88" fill="#231f20"/>
          <path d="M161.38,147.56c-21.68,0-39.66,15.23-43.13,35.2,0,0-.62,2.8-.62,11.29v41.99h87.48v-46.26c0-23.32-19.58-42.23-43.74-42.23h0Z" fill="#4dbd90"/>
          <rect x="96.93" y="147.55" width="20.7" height="88.32" fill="#484699"/>
          <rect x="76.24" y="147.55" width="20.7" height="88.32" fill="#231f20"/>
          <rect x="55.55" y="147.55" width="20.7" height="88.32" fill="#d13e28"/>
          <rect x="34.85" y="147.55" width="20.7" height="88.32" fill="#231f20"/>
          <polygon points="120.11 106.97 120.11 102.6 34.85 66.39 34.86 106.88 34.86 106.97 120.11 106.97" fill="#484699"/>
          <polygon points="34.85 147.55 34.85 138.82 205.35 66.39 205.34 147.37 205.34 147.55 34.85 147.55" fill="#d13e28"/>
          <path d="M138.5,189.91c0-12.26,10.24-22.2,22.86-22.2s22.86,9.94,22.86,22.2-10.24,22.2-22.86,22.2-22.86-9.94-22.86-22.2h0ZM153.08,191.31c.47,3.97,3.94,7.05,8.17,7.05,4.54,0,8.22-3.56,8.22-7.95,0-4.08-3.19-7.45-7.29-7.9.51.91.79,1.95.79,3.06,0,3.59-3.01,6.5-6.73,6.5-1.14,0-2.22-.28-3.16-.77Z" fill="#231f20"/>
          <polygon points="375.67 236.11 375.67 409.66 205.17 409.66 205.41 235.95 375.67 236.11" fill="#231f20"/>
          <path d="M249.15,324.43c21.68,0,39.66-15.23,43.13-35.2,0,0,.62-2.8.62-11.29v-41.99h-87.48v46.26c0,23.32,19.58,42.23,43.74,42.23h0Z" fill="#484699"/>
          <polygon points="292.9 324.43 313.59 324.43 313.59 236.05 292.9 236.03 292.9 324.43" fill="#4dbd90"/>
          <rect x="313.59" y="236.11" width="20.7" height="88.32" fill="#231f20"/>
          <polygon points="334.28 324.43 354.98 324.43 354.98 236.09 334.28 236.07 334.28 324.43" fill="#d13e28"/>
          <rect x="354.98" y="236.11" width="20.7" height="88.32" fill="#231f20"/>
          <polygon points="290.42 365.02 290.42 369.39 375.67 405.6 375.66 365.11 375.66 365.02 290.42 365.02" fill="#484699"/>
          <polygon points="375.67 324.11 375.67 332.88 205.11 405.6 205.12 324.29 205.12 324.11 375.67 324.11" fill="#4dbd90"/>
          <path d="M272.02,282.08c0,12.26-10.24,22.2-22.86,22.2s-22.86-9.94-22.86-22.2,10.24-22.2,22.86-22.2,22.86,9.94,22.86,22.2ZM257.44,280.68c-.47-3.97-3.94-7.05-8.17-7.05-4.54,0-8.22,3.56-8.22,7.95,0,4.08,3.19,7.45,7.29,7.9-.51-.91-.79-1.95-.79-3.06,0-3.59,3.01-6.5,6.73-6.5,1.14,0,2.22.28,3.16.77Z" fill="#231f20"/>
          <polygon points="76.15 225.2 76.15 235.97 78.65 241.81 55.55 240.32 55.45 227.54 76.15 225.2" fill="#d13e28"/>
          <polygon points="175.21 223.28 146.57 223.28 117.54 210.88 117.53 246.07 161.37 246.07 205.32 235.86 175.21 223.28" fill="#4dbd90"/>
          <polygon points="263.21 225.2 277.53 216.03 319.05 216.03 351.99 228.47 355.07 236.02 334.38 236.02 334.47 228.47 313.68 228.47 313.59 236.05 308.83 236.11 292.9 236.03 235.75 244.15 205.6 244.15 205.51 235.86 221.21 233.5 263.21 225.2" fill="#484699"/>
          <polygon points="309.02 146.19 313.5 155.15 313.5 164.87 303.15 172.05 274.76 167.81 292.8 155.15 292.8 146.19 309.02 146.19" fill="#231f20"/>
          <polygon points="144.4 393.87 107.28 393.87 107.28 413.65 117.63 415.24 128.18 416.82 169.47 416.82 205.17 411.61 205.07 400.2 144.4 393.87" fill="#231f20"/>
          <polygon points="210.89 64.21 221.36 59.61 247.28 59.06 279.27 47.12 313.5 47.12 313.4 66.76 313.4 73.02 310.52 76.16 287.35 79.65 237.54 79.65 205.35 66.39 210.89 64.21" fill="#231f20"/>
          <polygon points="97.54 235.19 98.95 235.19 98.84 236.82 96.93 236.23 96.93 235.66 97.54 235.19" fill="#484699"/>
          <polygon points="96.93 394.91 96.93 406.71 76.24 406.71 76.24 316.93 96.93 316.93 96.93 394.91" fill="#4dbd90"/>
          <polygon points="313.44 78.11 313.44 66.39 334.13 66.39 334.13 155.53 313.44 155.53 313.44 78.11" fill="#4dbd90"/>
          <polygon points="55.55 394.91 55.55 406.71 34.85 406.71 34.85 316.93 55.55 316.93 55.55 394.91" fill="#484699"/>
          <polygon points="371.78 381.87 372.17 402.01 375.67 405.6 375.67 406.13 378.24 406.13 380.59 400.72 380.53 386.88 381.03 365.02 374.17 365.02 371.78 381.87" fill="#484699"/>
          <polygon points="372.58 98.64 375.48 106.68 376.84 105.5 379.32 98.76 383.81 93.32 386.77 80.62 375.48 66.39 373.88 67.06 371.87 73.68 374.59 94.86 372.58 98.64" fill="#484699"/>
          <polygon points="126.28 241.81 53.9 241.81 34.85 235.76 126.28 235.76 126.28 241.81" fill="#4dbd90"/>
          <polygon points="375.48 65.19 368.14 62.07 353.73 62.07 353.73 66.39 375.48 66.39 375.48 65.19" fill="#231f20"/>
          <rect x="375.46" y="161.22" width="2.88" height="35.39" fill="#231f20"/>
          <polygon points="205.26 406.37 205.26 406.71 205.19 406.74 205.11 406.74 204.98 406.52 204.9 406.23 205.11 405.6 205.26 405.54 205.26 406.37" fill="#231f20"/>
          <polygon points="-47.89 185.13 -44.61 191.92 -42.84 198.52 -7.74 202.18 26 215.96 34.89 236.11 -135.62 236.11 -59.16 182.78 -47.89 185.13" fill="#484699"/>
          <polygon points="35.04 236.11 35.04 409.66 -135.46 409.66 -135.22 235.95 35.04 236.11" fill="#231f20"/>
          <rect x="14.35" y="236.11" width="20.7" height="88.32" fill="#231f20"/>
          <polygon points="-50.21 365.02 -50.21 369.39 35.04 405.6 35.03 365.11 35.03 365.02 -50.21 365.02" fill="#484699"/>
          <polygon points="35.04 324.11 35.04 332.88 -135.52 405.6 -135.51 324.29 -135.51 324.11 35.04 324.11" fill="#4dbd90"/>
          <polygon points="31.14 381.87 31.53 402.01 35.04 405.6 35.04 406.13 37.61 406.13 39.96 400.72 39.9 386.88 40.4 365.02 33.54 365.02 31.14 381.87" fill="#484699"/>
          <polygon points="31.95 98.64 34.85 106.68 36.21 105.5 38.69 98.76 43.18 93.32 46.14 80.62 34.85 66.39 33.25 67.06 31.24 73.68 33.96 94.86 31.95 98.64" fill="#484699"/>
          <rect x="34.83" y="161.22" width="2.88" height="35.39" fill="#231f20"/>
          <rect x="334.1" y="403.71" width="20.7" height="91.87" fill="#231f20"/>
          <polygon points="210.89 404.53 221.36 399.94 247.28 399.39 279.27 387.44 313.5 387.44 313.4 407.08 313.4 413.34 310.52 416.48 287.35 419.97 237.54 419.97 205.35 406.71 210.89 404.53" fill="#231f20"/>
          <polygon points="375.48 405.52 368.14 402.4 353.73 402.4 353.73 406.71 375.48 406.71 375.48 405.52" fill="#231f20"/>
        </g>
      </g>
      <g clip-path="url(#clippath-13)">
        <g clip-path="url(#clippath-14)">
          <rect x="96.93" y="314.16" width="20.7" height="93.09" fill="#231f20"/>
          <rect x="55.55" y="314.16" width="20.7" height="94.08" fill="#231f20"/>
          <polygon points="375.67 235.42 375.67 408.97 205.17 408.97 205.41 235.25 375.67 235.42" fill="#231f20"/>
          <polygon points="144.4 393.18 107.28 393.18 107.28 412.96 117.63 414.54 128.18 416.12 169.47 416.12 205.17 410.91 205.07 399.5 144.4 393.18" fill="#231f20"/>
          <polygon points="205.26 405.67 205.26 406.02 205.19 406.04 205.11 406.04 204.98 405.82 204.9 405.54 205.11 404.9 205.26 404.84 205.26 405.67" fill="#231f20"/>
          <polygon points="35.04 235.42 35.04 408.97 -135.46 408.97 -135.22 235.25 35.04 235.42" fill="#231f20"/>
          <polygon points="367.67 664.61 372.5 651.58 367.53 648.15 366 643.9 363.33 629.97 366.39 609.68 455.4 613.26 378.94 666.98 367.67 664.61" fill="#d13e28"/>
          <polygon points="34.85 744.88 34.85 575.39 205.35 575.39 205.11 745.04 34.85 744.88"/>
          <polygon points="204.98 642.14 205.34 656.56 206.65 672.87 205.51 684.37 205.51 709.28 205.51 721.11 101.53 718.37 114.77 637.08 204.98 642.14" fill="#d13e28"/>
          <path d="M161.38,656.56c-21.68,0-39.66,15.23-43.13,35.2,0,0-.62,2.8-.62,11.29v41.99h87.48v-46.25c0-23.32-19.58-42.23-43.74-42.23h0Z" fill="#231f20"/>
          <rect x="96.93" y="654.49" width="20.7" height="93.09" fill="#231f20"/>
          <polygon points="117.63 626.75 114.35 619.9 112.58 613.26 77.48 609.57 43.74 595.68 34.85 575.39 205.35 575.39 128.9 629.11 117.63 626.75" fill="#4dbd90"/>
          <polygon points="27.04 664.61 31.87 651.58 26.9 648.15 25.37 643.9 22.7 629.97 25.75 609.68 114.77 613.26 38.31 666.98 27.04 664.61" fill="#d13e28"/>
          <rect x="76.24" y="656.56" width="20.7" height="89.79"/>
          <polygon points="55.55 734.54 55.55 746.34 34.85 746.34 34.85 656.56 55.55 656.56 55.55 734.54" fill="#828282"/>
          <rect x="55.55" y="654.49" width="20.7" height="94.08" fill="#231f20"/>
          <rect x="34.85" y="656.56" width="20.7" height="89.79"/>
          <polygon points="120.11 615.97 120.11 611.61 34.85 575.39 34.86 615.88 34.86 615.97 120.11 615.97" fill="#231f20"/>
          <polygon points="34.85 656.56 34.85 647.82 205.35 575.39 205.34 656.37 205.34 656.56 34.85 656.56" fill="#231f20"/>
          <path d="M161.37,676.72c12.62,0,22.86,9.94,22.86,22.2s-10.24,22.2-22.86,22.2-22.86-9.94-22.86-22.2,10.24-22.2,22.86-22.2ZM161.25,707.36c4.54,0,8.22-3.56,8.22-7.95,0-4.08-3.19-7.45-7.29-7.9.51.91.79,1.95.79,3.06,0,3.59-3.01,6.5-6.73,6.5-1.14,0-2.22-.28-3.16-.77.47,3.97,3.94,7.05,8.17,7.05Z" fill="#d13e28"/>
          <polygon points="375.48 406.55 375.48 576.04 204.98 576.04 205.23 406.39 375.48 406.55"/>
          <polygon points="205.39 509.48 205.03 495.16 203.72 478.97 204.86 467.54 204.86 442.81 204.86 431.07 308.83 433.79 295.6 514.49 205.39 509.48" fill="#d13e28"/>
          <polygon points="375.16 486.88 375.48 498.75 375.48 535.46 295.6 538.15 372.06 484.81 375.16 486.88" fill="#d13e28"/>
          <path d="M248.96,494.87c21.68,0,39.66-15.23,43.13-35.2,0,0,.62-2.8.62-11.29v-41.99h-87.48v46.26c0,23.32,19.58,42.23,43.74,42.23h0Z" fill="#231f20"/>
          <rect x="292.71" y="406.39" width="20.7" height="88.48" fill="#231f20"/>
          <rect x="313.4" y="406.02" width="20.7" height="88.86"/>
          <rect x="334.1" y="403.01" width="20.7" height="91.87" fill="#231f20"/>
          <polygon points="292.74 524.76 296.02 531.55 297.79 538.15 332.89 541.81 366.63 555.59 375.52 575.74 205.02 575.74 281.47 522.41 292.74 524.76" fill="#484699"/>
          <rect x="354.79" y="406.02" width="20.7" height="88.86" fill="#484699"/>
          <polygon points="290.24 535.46 290.24 539.83 375.48 576.04 375.48 535.55 375.48 535.46 290.24 535.46" fill="#231f20"/>
          <polygon points="375.48 494.88 375.48 503.62 204.98 576.04 205 495.06 205 494.88 375.48 494.88" fill="#231f20"/>
          <path d="M248.97,474.72c-12.62,0-22.86-9.94-22.86-22.2s10.24-22.2,22.86-22.2,22.86,9.94,22.86,22.2-10.24,22.2-22.86,22.2ZM257.26,451.12c-.47-3.97-3.94-7.05-8.17-7.05-4.54,0-8.22,3.56-8.22,7.95,0,4.08,3.19,7.45,7.29,7.9-.51-.91-.79-1.95-.79-3.06,0-3.59,3.01-6.5,6.72-6.5,1.14,0,2.22.28,3.16.77Z" fill="#d13e28"/>
          <polygon points="34.85 575.51 34.85 406.02 205.35 406.02 205.11 575.67 34.85 575.51" fill="#231f20"/>
          <path d="M161.38,487.19c-21.68,0-39.66,15.23-43.13,35.2,0,0-.62,2.8-.62,11.29v41.99h87.48v-46.26c0-23.32-19.58-42.23-43.74-42.23h0Z" fill="#4dbd90"/>
          <rect x="96.93" y="487.18" width="20.7" height="88.32" fill="#484699"/>
          <rect x="76.24" y="487.18" width="20.7" height="88.32" fill="#231f20"/>
          <rect x="55.55" y="487.18" width="20.7" height="88.32" fill="#d13e28"/>
          <rect x="34.85" y="487.18" width="20.7" height="88.32" fill="#231f20"/>
          <polygon points="120.11 446.6 120.11 442.23 34.85 406.02 34.86 446.51 34.86 446.6 120.11 446.6" fill="#484699"/>
          <polygon points="34.85 487.18 34.85 478.45 205.35 406.02 205.34 487 205.34 487.18 34.85 487.18" fill="#d13e28"/>
          <path d="M138.5,529.54c0-12.26,10.24-22.2,22.86-22.2s22.86,9.94,22.86,22.2-10.24,22.2-22.86,22.2-22.86-9.94-22.86-22.2h0ZM153.08,530.94c.47,3.97,3.94,7.05,8.17,7.05,4.54,0,8.22-3.56,8.22-7.95,0-4.08-3.19-7.45-7.29-7.9.51.91.79,1.95.79,3.06,0,3.59-3.01,6.5-6.73,6.5-1.14,0-2.22-.28-3.16-.77Z" fill="#231f20"/>
          <polygon points="375.67 575.74 375.67 749.29 205.17 749.29 205.41 575.58 375.67 575.74" fill="#231f20"/>
          <path d="M249.15,664.06c21.68,0,39.66-15.23,43.13-35.2,0,0,.62-2.8.62-11.29v-41.99h-87.48v46.26c0,23.32,19.58,42.23,43.74,42.23h0Z" fill="#484699"/>
          <polygon points="292.9 664.06 313.59 664.06 313.59 575.68 292.9 575.66 292.9 664.06" fill="#4dbd90"/>
          <rect x="313.59" y="575.74" width="20.7" height="88.32" fill="#231f20"/>
          <polygon points="334.28 664.06 354.98 664.06 354.98 575.72 334.28 575.7 334.28 664.06" fill="#d13e28"/>
          <rect x="354.98" y="575.74" width="20.7" height="88.32" fill="#231f20"/>
          <polygon points="290.42 704.65 290.42 709.02 375.67 745.23 375.66 704.74 375.66 704.65 290.42 704.65" fill="#484699"/>
          <polygon points="375.67 663.74 375.67 672.51 205.11 745.23 205.12 663.92 205.12 663.74 375.67 663.74" fill="#4dbd90"/>
          <path d="M272.02,621.71c0,12.26-10.24,22.2-22.86,22.2s-22.86-9.94-22.86-22.2,10.24-22.2,22.86-22.2,22.86,9.94,22.86,22.2ZM257.44,620.31c-.47-3.97-3.94-7.05-8.17-7.05-4.54,0-8.22,3.56-8.22,7.95,0,4.08,3.19,7.45,7.29,7.9-.51-.91-.79-1.95-.79-3.06,0-3.59,3.01-6.5,6.73-6.5,1.14,0,2.22.28,3.16.77Z" fill="#231f20"/>
          <polygon points="76.15 564.83 76.15 575.6 78.65 581.44 55.55 579.95 55.45 567.17 76.15 564.83" fill="#d13e28"/>
          <polygon points="175.21 562.91 146.57 562.91 117.54 550.51 117.53 585.7 161.37 585.7 205.32 575.49 175.21 562.91" fill="#4dbd90"/>
          <polygon points="263.21 564.83 277.53 555.66 319.05 555.66 351.99 568.1 355.07 575.65 334.38 575.65 334.47 568.1 313.68 568.1 313.59 575.68 308.83 575.74 292.9 575.66 235.75 583.78 205.6 583.78 205.51 575.49 221.21 573.13 263.21 564.83" fill="#484699"/>
          <polygon points="309.02 485.82 313.5 494.78 313.5 504.5 303.15 511.68 274.76 507.44 292.8 494.78 292.8 485.82 309.02 485.82" fill="#231f20"/>
          <polygon points="144.4 733.5 107.28 733.5 107.28 753.28 117.63 754.87 128.18 756.45 169.47 756.45 205.17 751.24 205.07 739.83 144.4 733.5" fill="#231f20"/>
          <polygon points="210.89 403.84 221.36 399.24 247.28 398.69 279.27 386.75 313.5 386.75 313.4 406.39 313.4 412.65 310.52 415.79 287.35 419.28 237.54 419.28 205.35 406.02 210.89 403.84" fill="#231f20"/>
          <polygon points="97.54 574.82 98.95 574.82 98.84 576.45 96.93 575.86 96.93 575.29 97.54 574.82" fill="#484699"/>
          <polygon points="96.93 734.54 96.93 746.34 76.24 746.34 76.24 656.56 96.93 656.56 96.93 734.54" fill="#4dbd90"/>
          <polygon points="313.44 417.74 313.44 406.02 334.13 406.02 334.13 495.16 313.44 495.16 313.44 417.74" fill="#4dbd90"/>
          <polygon points="55.55 734.54 55.55 746.34 34.85 746.34 34.85 656.56 55.55 656.56 55.55 734.54" fill="#484699"/>
          <polygon points="371.78 721.5 372.17 741.64 375.67 745.23 375.67 745.76 378.24 745.76 380.59 740.35 380.53 726.51 381.03 704.65 374.17 704.65 371.78 721.5" fill="#484699"/>
          <polygon points="372.58 438.27 375.48 446.31 376.84 445.13 379.32 438.39 383.81 432.95 386.77 420.25 375.48 406.02 373.88 406.69 371.87 413.31 374.59 434.49 372.58 438.27" fill="#484699"/>
          <polygon points="126.28 581.44 53.9 581.44 34.85 575.39 126.28 575.39 126.28 581.44" fill="#4dbd90"/>
          <polygon points="375.48 404.82 368.14 401.7 353.73 401.7 353.73 406.02 375.48 406.02 375.48 404.82" fill="#231f20"/>
          <rect x="375.46" y="500.85" width="2.88" height="35.39" fill="#231f20"/>
          <polygon points="205.26 746 205.26 746.34 205.19 746.37 205.11 746.37 204.98 746.15 204.9 745.86 205.11 745.23 205.26 745.17 205.26 746" fill="#231f20"/>
          <polygon points="-47.89 524.76 -44.61 531.55 -42.84 538.15 -7.74 541.81 26 555.59 34.89 575.74 -135.62 575.74 -59.16 522.41 -47.89 524.76" fill="#484699"/>
          <polygon points="35.04 575.74 35.04 749.29 -135.46 749.29 -135.22 575.58 35.04 575.74" fill="#231f20"/>
          <rect x="14.35" y="575.74" width="20.7" height="88.32" fill="#231f20"/>
          <polygon points="-50.21 704.65 -50.21 709.02 35.04 745.23 35.03 704.74 35.03 704.65 -50.21 704.65" fill="#484699"/>
          <polygon points="35.04 663.74 35.04 672.51 -135.52 745.23 -135.51 663.92 -135.51 663.74 35.04 663.74" fill="#4dbd90"/>
          <polygon points="31.14 721.5 31.53 741.64 35.04 745.23 35.04 745.76 37.61 745.76 39.96 740.35 39.9 726.51 40.4 704.65 33.54 704.65 31.14 721.5" fill="#484699"/>
          <polygon points="31.95 438.27 34.85 446.31 36.21 445.13 38.69 438.39 43.18 432.95 46.14 420.25 34.85 406.02 33.25 406.69 31.24 413.31 33.96 434.49 31.95 438.27" fill="#484699"/>
          <rect x="34.83" y="500.85" width="2.88" height="35.39" fill="#231f20"/>
          <rect x="334.1" y="743.34" width="20.7" height="91.87" fill="#231f20"/>
          <polygon points="210.89 744.16 221.36 739.57 247.28 739.02 279.27 727.07 313.5 727.07 313.4 746.71 313.4 752.97 310.52 756.11 287.35 759.6 237.54 759.6 205.35 746.34 210.89 744.16" fill="#231f20"/>
          <polygon points="375.48 745.15 368.14 742.03 353.73 742.03 353.73 746.34 375.48 746.34 375.48 745.15" fill="#231f20"/>
        </g>
      </g>
      <g clip-path="url(#clippath-15)">
        <g clip-path="url(#clippath-16)">
          <rect x="96.93" y="654.79" width="20.7" height="93.09" fill="#231f20"/>
          <rect x="55.55" y="654.79" width="20.7" height="94.08" fill="#231f20"/>
          <polygon points="375.67 576.05 375.67 749.6 205.17 749.6 205.41 575.88 375.67 576.05" fill="#231f20"/>
          <polygon points="144.4 733.81 107.28 733.81 107.28 753.59 117.63 755.17 128.18 756.75 169.47 756.75 205.17 751.54 205.07 740.13 144.4 733.81" fill="#231f20"/>
          <polygon points="205.26 746.3 205.26 746.65 205.19 746.67 205.11 746.67 204.98 746.45 204.9 746.17 205.11 745.53 205.26 745.47 205.26 746.3" fill="#231f20"/>
          <polygon points="35.04 576.05 35.04 749.6 -135.46 749.6 -135.22 575.88 35.04 576.05" fill="#231f20"/>
          <polygon points="375.48 747.18 375.48 916.67 204.98 916.67 205.23 747.02 375.48 747.18"/>
          <polygon points="205.39 850.11 205.03 835.79 203.72 819.6 204.86 808.17 204.86 783.44 204.86 771.7 308.83 774.42 295.6 855.12 205.39 850.11" fill="#d13e28"/>
          <polygon points="375.16 827.51 375.48 839.38 375.48 876.09 295.6 878.78 372.06 825.44 375.16 827.51" fill="#d13e28"/>
          <path d="M248.96,835.5c21.68,0,39.66-15.23,43.13-35.2,0,0,.62-2.8.62-11.29v-41.99h-87.48v46.26c0,23.32,19.58,42.23,43.74,42.23h0Z" fill="#231f20"/>
          <rect x="292.71" y="747.02" width="20.7" height="88.48" fill="#231f20"/>
          <rect x="313.4" y="746.65" width="20.7" height="88.86"/>
          <rect x="334.1" y="743.64" width="20.7" height="91.87" fill="#231f20"/>
          <polygon points="292.74 865.39 296.02 872.18 297.79 878.78 332.89 882.44 366.63 896.22 375.52 916.37 205.02 916.37 281.47 863.04 292.74 865.39" fill="#484699"/>
          <rect x="354.79" y="746.65" width="20.7" height="88.86" fill="#484699"/>
          <polygon points="290.24 876.09 290.24 880.46 375.48 916.67 375.48 876.18 375.48 876.09 290.24 876.09" fill="#231f20"/>
          <polygon points="375.48 835.51 375.48 844.25 204.98 916.67 205 835.69 205 835.51 375.48 835.51" fill="#231f20"/>
          <path d="M248.97,815.35c-12.62,0-22.86-9.94-22.86-22.2s10.24-22.2,22.86-22.2,22.86,9.94,22.86,22.2-10.24,22.2-22.86,22.2ZM257.26,791.75c-.47-3.97-3.94-7.05-8.17-7.05-4.54,0-8.22,3.56-8.22,7.95,0,4.08,3.19,7.45,7.29,7.9-.51-.91-.79-1.95-.79-3.06,0-3.59,3.01-6.5,6.72-6.5,1.14,0,2.22.28,3.16.77Z" fill="#d13e28"/>
          <polygon points="34.85 916.14 34.85 746.65 205.35 746.65 205.11 916.3 34.85 916.14" fill="#231f20"/>
          <path d="M161.38,827.82c-21.68,0-39.66,15.23-43.13,35.2,0,0-.62,2.8-.62,11.29v41.99h87.48v-46.26c0-23.32-19.58-42.23-43.74-42.23h0Z" fill="#4dbd90"/>
          <rect x="96.93" y="827.81" width="20.7" height="88.32" fill="#484699"/>
          <rect x="76.24" y="827.81" width="20.7" height="88.32" fill="#231f20"/>
          <rect x="55.55" y="827.81" width="20.7" height="88.32" fill="#d13e28"/>
          <rect x="34.85" y="827.81" width="20.7" height="88.32" fill="#231f20"/>
          <polygon points="120.11 787.23 120.11 782.86 34.85 746.65 34.86 787.14 34.86 787.23 120.11 787.23" fill="#484699"/>
          <polygon points="34.85 827.81 34.85 819.08 205.35 746.65 205.34 827.63 205.34 827.81 34.85 827.81" fill="#d13e28"/>
          <path d="M138.5,870.17c0-12.26,10.24-22.2,22.86-22.2s22.86,9.94,22.86,22.2-10.24,22.2-22.86,22.2-22.86-9.94-22.86-22.2h0ZM153.08,871.57c.47,3.97,3.94,7.05,8.17,7.05,4.54,0,8.22-3.56,8.22-7.95,0-4.08-3.19-7.45-7.29-7.9.51.91.79,1.95.79,3.06,0,3.59-3.01,6.5-6.73,6.5-1.14,0-2.22-.28-3.16-.77Z" fill="#231f20"/>
          <polygon points="175.21 903.54 146.57 903.54 117.54 891.14 117.53 926.33 161.37 926.33 205.32 916.12 175.21 903.54" fill="#4dbd90"/>
          <polygon points="263.21 905.46 277.53 896.29 319.05 896.29 351.99 908.73 355.07 916.28 334.38 916.28 334.47 908.73 313.68 908.73 313.59 916.31 308.83 916.37 292.9 916.29 235.75 924.41 205.6 924.41 205.51 916.12 221.21 913.76 263.21 905.46" fill="#484699"/>
          <polygon points="309.02 826.45 313.5 835.41 313.5 845.13 303.15 852.31 274.76 848.07 292.8 835.41 292.8 826.45 309.02 826.45" fill="#231f20"/>
          <polygon points="210.89 744.47 221.36 739.87 247.28 739.32 279.27 727.38 313.5 727.38 313.4 747.02 313.4 753.28 310.52 756.42 287.35 759.91 237.54 759.91 205.35 746.65 210.89 744.47" fill="#231f20"/>
          <polygon points="313.44 758.37 313.44 746.65 334.13 746.65 334.13 835.79 313.44 835.79 313.44 758.37" fill="#4dbd90"/>
          <polygon points="372.58 778.9 375.48 786.94 376.84 785.76 379.32 779.02 383.81 773.58 386.77 760.88 375.48 746.65 373.88 747.32 371.87 753.94 374.59 775.12 372.58 778.9" fill="#484699"/>
          <polygon points="375.48 745.45 368.14 742.33 353.73 742.33 353.73 746.65 375.48 746.65 375.48 745.45" fill="#231f20"/>
          <rect x="375.46" y="841.48" width="2.88" height="35.39" fill="#231f20"/>
          <polygon points="-47.89 865.39 -44.61 872.18 -42.84 878.78 -7.74 882.44 26 896.22 34.89 916.37 -135.62 916.37 -59.16 863.04 -47.89 865.39" fill="#484699"/>
          <polygon points="31.95 778.9 34.85 786.94 36.21 785.76 38.69 779.02 43.18 773.58 46.14 760.88 34.85 746.65 33.25 747.32 31.24 753.94 33.96 775.12 31.95 778.9" fill="#484699"/>
          <rect x="34.83" y="841.48" width="2.88" height="35.39" fill="#231f20"/>
        </g>
      </g>
      <g clip-path="url(#clippath-17)">
        <g clip-path="url(#clippath-18)">
          <polygon points="35.04 -103.52 35.04 70.03 -135.46 70.03 -135.22 -103.68 35.04 -103.52" fill="#231f20"/>
          <polygon points="-50.21 25.39 -50.21 29.76 35.04 65.97 35.03 25.48 35.03 25.39 -50.21 25.39" fill="#484699"/>
          <polygon points="35.04 -15.52 35.04 -6.75 -135.52 65.97 -135.51 -15.34 -135.51 -15.52 35.04 -15.52" fill="#4dbd90"/>
          <polygon points="31.15 42.24 31.54 62.38 35.04 65.97 35.04 66.5 37.61 66.5 39.96 61.09 39.9 47.25 40.4 25.39 33.54 25.39 31.15 42.24" fill="#484699"/>
          <rect x="-6.53" y="64.08" width="20.7" height="91.87" fill="#231f20"/>
          <polygon points="34.85 65.89 27.51 62.77 13.1 62.77 13.1 67.08 34.85 67.08 34.85 65.89" fill="#231f20"/>
        </g>
      </g>
      <g clip-path="url(#clippath-19)">
        <g clip-path="url(#clippath-20)">
          <polygon points="35.04 -104.21 35.04 69.34 -135.46 69.34 -135.22 -104.38 35.04 -104.21" fill="#231f20"/>
          <polygon points="27.04 324.98 31.87 311.95 26.9 308.52 25.37 304.27 22.7 290.34 25.76 270.05 114.77 273.63 38.31 327.35 27.04 324.98" fill="#d13e28"/>
          <polygon points="34.85 66.92 34.85 236.41 -135.65 236.41 -135.4 66.76 34.85 66.92"/>
          <polygon points="34.53 147.25 34.85 159.12 34.85 195.83 -45.03 198.52 31.43 145.18 34.53 147.25" fill="#d13e28"/>
          <rect x="-6.53" y="63.38" width="20.7" height="91.87" fill="#231f20"/>
          <polygon points="-47.89 185.13 -44.61 191.92 -42.84 198.52 -7.74 202.18 26 215.96 34.89 236.11 -135.61 236.11 -59.16 182.78 -47.89 185.13" fill="#484699"/>
          <rect x="14.16" y="66.39" width="20.7" height="88.86" fill="#484699"/>
          <polygon points="-50.39 195.83 -50.39 200.2 34.85 236.41 34.85 195.92 34.85 195.83 -50.39 195.83" fill="#231f20"/>
          <polygon points="34.85 155.25 34.85 163.99 -135.65 236.41 -135.63 155.43 -135.63 155.25 34.85 155.25" fill="#231f20"/>
          <polygon points="35.04 236.11 35.04 409.66 -135.46 409.66 -135.22 235.95 35.04 236.11" fill="#231f20"/>
          <polygon points="-6.35 324.43 14.35 324.43 14.35 236.09 -6.35 236.07 -6.35 324.43" fill="#d13e28"/>
          <rect x="14.35" y="236.11" width="20.7" height="88.32" fill="#231f20"/>
          <polygon points="-50.21 365.02 -50.21 369.39 35.04 405.6 35.03 365.11 35.03 365.02 -50.21 365.02" fill="#484699"/>
          <polygon points="35.04 324.11 35.04 332.88 -135.52 405.6 -135.51 324.29 -135.51 324.11 35.04 324.11" fill="#4dbd90"/>
          <polygon points="-77.42 225.2 -63.1 216.03 -21.58 216.03 11.36 228.47 14.44 236.02 -6.25 236.02 -6.16 228.47 -26.95 228.47 -27.04 236.05 -31.8 236.11 -47.73 236.03 -104.88 244.15 -135.03 244.15 -135.12 235.86 -119.42 233.5 -77.42 225.2" fill="#484699"/>
          <polygon points="31.15 381.87 31.54 402.01 35.04 405.6 35.04 406.13 37.61 406.13 39.96 400.72 39.9 386.88 40.4 365.02 33.54 365.02 31.15 381.87" fill="#484699"/>
          <polygon points="31.95 98.64 34.85 106.68 36.21 105.5 38.69 98.76 43.18 93.32 46.14 80.62 34.85 66.39 33.25 67.06 31.24 73.68 33.96 94.86 31.95 98.64" fill="#484699"/>
          <polygon points="34.85 65.19 27.51 62.07 13.1 62.07 13.1 66.39 34.85 66.39 34.85 65.19" fill="#231f20"/>
          <rect x="34.83" y="161.22" width="2.88" height="35.39" fill="#231f20"/>
          <rect x="-6.53" y="403.71" width="20.7" height="91.87" fill="#231f20"/>
          <polygon points="34.85 405.52 27.51 402.4 13.1 402.4 13.1 406.71 34.85 406.71 34.85 405.52" fill="#231f20"/>
        </g>
      </g>
      <g clip-path="url(#clippath-21)">
        <g clip-path="url(#clippath-22)">
          <polygon points="35.04 235.42 35.04 408.97 -135.46 408.97 -135.22 235.25 35.04 235.42" fill="#231f20"/>
          <polygon points="27.04 664.61 31.87 651.58 26.9 648.15 25.37 643.9 22.7 629.97 25.76 609.68 114.77 613.26 38.31 666.98 27.04 664.61" fill="#d13e28"/>
          <polygon points="34.85 406.55 34.85 576.04 -135.65 576.04 -135.4 406.39 34.85 406.55"/>
          <polygon points="34.53 486.88 34.85 498.75 34.85 535.46 -45.03 538.15 31.43 484.81 34.53 486.88" fill="#d13e28"/>
          <rect x="-6.53" y="403.01" width="20.7" height="91.87" fill="#231f20"/>
          <polygon points="-47.89 524.76 -44.61 531.55 -42.84 538.15 -7.74 541.81 26 555.59 34.89 575.74 -135.61 575.74 -59.16 522.41 -47.89 524.76" fill="#484699"/>
          <rect x="14.16" y="406.02" width="20.7" height="88.86" fill="#484699"/>
          <polygon points="-50.39 535.46 -50.39 539.83 34.85 576.04 34.85 535.55 34.85 535.46 -50.39 535.46" fill="#231f20"/>
          <polygon points="34.85 494.88 34.85 503.62 -135.65 576.04 -135.63 495.06 -135.63 494.88 34.85 494.88" fill="#231f20"/>
          <polygon points="35.04 575.74 35.04 749.29 -135.46 749.29 -135.22 575.58 35.04 575.74" fill="#231f20"/>
          <polygon points="-6.35 664.06 14.35 664.06 14.35 575.72 -6.35 575.7 -6.35 664.06" fill="#d13e28"/>
          <rect x="14.35" y="575.74" width="20.7" height="88.32" fill="#231f20"/>
          <polygon points="-50.21 704.65 -50.21 709.02 35.04 745.23 35.03 704.74 35.03 704.65 -50.21 704.65" fill="#484699"/>
          <polygon points="35.04 663.74 35.04 672.51 -135.52 745.23 -135.51 663.92 -135.51 663.74 35.04 663.74" fill="#4dbd90"/>
          <polygon points="-77.42 564.83 -63.1 555.66 -21.58 555.66 11.36 568.1 14.44 575.65 -6.25 575.65 -6.16 568.1 -26.95 568.1 -27.04 575.68 -31.8 575.74 -47.73 575.66 -104.88 583.78 -135.03 583.78 -135.12 575.49 -119.42 573.13 -77.42 564.83" fill="#484699"/>
          <polygon points="31.15 721.5 31.54 741.64 35.04 745.23 35.04 745.76 37.61 745.76 39.96 740.35 39.9 726.51 40.4 704.65 33.54 704.65 31.15 721.5" fill="#484699"/>
          <polygon points="31.95 438.27 34.85 446.31 36.21 445.13 38.69 438.39 43.18 432.95 46.14 420.25 34.85 406.02 33.25 406.69 31.24 413.31 33.96 434.49 31.95 438.27" fill="#484699"/>
          <polygon points="34.85 404.82 27.51 401.7 13.1 401.7 13.1 406.02 34.85 406.02 34.85 404.82" fill="#231f20"/>
          <rect x="34.83" y="500.85" width="2.88" height="35.39" fill="#231f20"/>
          <rect x="-6.53" y="743.34" width="20.7" height="91.87" fill="#231f20"/>
          <polygon points="34.85 745.15 27.51 742.03 13.1 742.03 13.1 746.34 34.85 746.34 34.85 745.15" fill="#231f20"/>
        </g>
      </g>
      <g clip-path="url(#clippath-23)">
        <g clip-path="url(#clippath-24)">
          <polygon points="35.04 576.05 35.04 749.6 -135.46 749.6 -135.22 575.88 35.04 576.05" fill="#231f20"/>
          <polygon points="34.85 747.18 34.85 916.67 -135.65 916.67 -135.4 747.02 34.85 747.18"/>
          <polygon points="34.53 827.51 34.85 839.38 34.85 876.09 -45.03 878.78 31.43 825.44 34.53 827.51" fill="#d13e28"/>
          <rect x="-6.53" y="743.64" width="20.7" height="91.87" fill="#231f20"/>
          <polygon points="-47.89 865.39 -44.61 872.18 -42.84 878.78 -7.74 882.44 26 896.22 34.89 916.37 -135.61 916.37 -59.16 863.04 -47.89 865.39" fill="#484699"/>
          <rect x="14.16" y="746.65" width="20.7" height="88.86" fill="#484699"/>
          <polygon points="-50.39 876.09 -50.39 880.46 34.85 916.67 34.85 876.18 34.85 876.09 -50.39 876.09" fill="#231f20"/>
          <polygon points="34.85 835.51 34.85 844.25 -135.65 916.67 -135.63 835.69 -135.63 835.51 34.85 835.51" fill="#231f20"/>
          <polygon points="-77.42 905.46 -63.1 896.29 -21.58 896.29 11.36 908.73 14.44 916.28 -6.25 916.28 -6.16 908.73 -26.95 908.73 -27.04 916.31 -31.8 916.37 -47.73 916.29 -104.88 924.41 -135.03 924.41 -135.12 916.12 -119.42 913.76 -77.42 905.46" fill="#484699"/>
          <polygon points="31.95 778.9 34.85 786.94 36.21 785.76 38.69 779.02 43.18 773.58 46.14 760.88 34.85 746.65 33.25 747.32 31.24 753.94 33.96 775.12 31.95 778.9" fill="#484699"/>
          <polygon points="34.85 745.45 27.51 742.33 13.1 742.33 13.1 746.65 34.85 746.65 34.85 745.45" fill="#231f20"/>
          <rect x="34.83" y="841.48" width="2.88" height="35.39" fill="#231f20"/>
        </g>
      </g>
    </g>
  </g>
</svg>